<mxfile host="65bd71144e" pages="2">
    <diagram id="6pyZRXaOPrZ96JGblUJB" name="mer">
        <mxGraphModel dx="1367" dy="525" grid="1" gridSize="10" guides="1" tooltips="1" connect="1" arrows="1" fold="1" page="0" pageScale="1" pageWidth="827" pageHeight="1169" math="0" shadow="0">
            <root>
                <mxCell id="0"/>
                <mxCell id="1" parent="0"/>
                <mxCell id="aN2CIeyYc0d-qHaQi9qx-1" value="usuario" style="rounded=0;whiteSpace=wrap;html=1;" parent="1" vertex="1">
                    <mxGeometry x="294" y="140" width="100" height="60" as="geometry"/>
                </mxCell>
                <mxCell id="aN2CIeyYc0d-qHaQi9qx-2" value="&lt;u&gt;nome_usuario&lt;/u&gt;" style="ellipse;whiteSpace=wrap;html=1;" parent="1" vertex="1">
                    <mxGeometry x="209" y="40" width="90" height="50" as="geometry"/>
                </mxCell>
                <mxCell id="aN2CIeyYc0d-qHaQi9qx-3" value="" style="endArrow=none;html=1;rounded=0;entryX=0.5;entryY=0;entryDx=0;entryDy=0;exitX=0.5;exitY=1;exitDx=0;exitDy=0;" parent="1" source="aN2CIeyYc0d-qHaQi9qx-2" target="aN2CIeyYc0d-qHaQi9qx-1" edge="1">
                    <mxGeometry width="50" height="50" relative="1" as="geometry">
                        <mxPoint x="369" y="210" as="sourcePoint"/>
                        <mxPoint x="469" y="210" as="targetPoint"/>
                    </mxGeometry>
                </mxCell>
                <mxCell id="aN2CIeyYc0d-qHaQi9qx-4" value="email" style="ellipse;whiteSpace=wrap;html=1;" parent="1" vertex="1">
                    <mxGeometry x="309" y="40" width="70" height="50" as="geometry"/>
                </mxCell>
                <mxCell id="aN2CIeyYc0d-qHaQi9qx-5" value="senha" style="ellipse;whiteSpace=wrap;html=1;" parent="1" vertex="1">
                    <mxGeometry x="389" y="40" width="70" height="50" as="geometry"/>
                </mxCell>
                <mxCell id="aN2CIeyYc0d-qHaQi9qx-6" value="" style="endArrow=none;html=1;rounded=0;exitX=0.5;exitY=1;exitDx=0;exitDy=0;entryX=0.5;entryY=0;entryDx=0;entryDy=0;" parent="1" source="aN2CIeyYc0d-qHaQi9qx-4" target="aN2CIeyYc0d-qHaQi9qx-1" edge="1">
                    <mxGeometry width="50" height="50" relative="1" as="geometry">
                        <mxPoint x="409" y="240" as="sourcePoint"/>
                        <mxPoint x="509" y="240" as="targetPoint"/>
                    </mxGeometry>
                </mxCell>
                <mxCell id="aN2CIeyYc0d-qHaQi9qx-7" value="" style="endArrow=none;html=1;rounded=0;exitX=0.5;exitY=1;exitDx=0;exitDy=0;entryX=0.5;entryY=0;entryDx=0;entryDy=0;" parent="1" source="aN2CIeyYc0d-qHaQi9qx-5" target="aN2CIeyYc0d-qHaQi9qx-1" edge="1">
                    <mxGeometry width="50" height="50" relative="1" as="geometry">
                        <mxPoint x="569" y="190" as="sourcePoint"/>
                        <mxPoint x="669" y="190" as="targetPoint"/>
                    </mxGeometry>
                </mxCell>
                <mxCell id="aN2CIeyYc0d-qHaQi9qx-8" value="" style="group" parent="1" vertex="1" connectable="0">
                    <mxGeometry x="469" y="140" width="100" height="60" as="geometry"/>
                </mxCell>
                <mxCell id="aN2CIeyYc0d-qHaQi9qx-9" value="" style="rhombus;whiteSpace=wrap;html=1;" parent="aN2CIeyYc0d-qHaQi9qx-8" vertex="1">
                    <mxGeometry width="100" height="60" as="geometry"/>
                </mxCell>
                <mxCell id="aN2CIeyYc0d-qHaQi9qx-10" value="cria" style="rhombus;whiteSpace=wrap;html=1;" parent="aN2CIeyYc0d-qHaQi9qx-8" vertex="1">
                    <mxGeometry x="8.339999999999975" y="5" width="83.33" height="50" as="geometry"/>
                </mxCell>
                <mxCell id="aN2CIeyYc0d-qHaQi9qx-11" value="" style="group" parent="1" vertex="1" connectable="0">
                    <mxGeometry x="639" y="140" width="100" height="60" as="geometry"/>
                </mxCell>
                <mxCell id="aN2CIeyYc0d-qHaQi9qx-12" value="" style="rounded=0;whiteSpace=wrap;html=1;" parent="aN2CIeyYc0d-qHaQi9qx-11" vertex="1">
                    <mxGeometry width="100" height="60" as="geometry"/>
                </mxCell>
                <mxCell id="aN2CIeyYc0d-qHaQi9qx-13" value="lista" style="rounded=0;whiteSpace=wrap;html=1;" parent="aN2CIeyYc0d-qHaQi9qx-11" vertex="1">
                    <mxGeometry x="5" y="5" width="90" height="50" as="geometry"/>
                </mxCell>
                <mxCell id="aN2CIeyYc0d-qHaQi9qx-14" value="" style="endArrow=none;html=1;rounded=0;startArrow=ERmandOne;startFill=0;exitX=1;exitY=0.5;exitDx=0;exitDy=0;entryX=0;entryY=0.5;entryDx=0;entryDy=0;" parent="1" source="aN2CIeyYc0d-qHaQi9qx-1" target="aN2CIeyYc0d-qHaQi9qx-9" edge="1">
                    <mxGeometry width="50" height="50" relative="1" as="geometry">
                        <mxPoint x="429" y="230" as="sourcePoint"/>
                        <mxPoint x="460" y="200" as="targetPoint"/>
                    </mxGeometry>
                </mxCell>
                <mxCell id="aN2CIeyYc0d-qHaQi9qx-15" value="" style="endArrow=none;html=1;rounded=0;startArrow=ERzeroToMany;startFill=0;exitX=0;exitY=0.5;exitDx=0;exitDy=0;entryX=1;entryY=0.5;entryDx=0;entryDy=0;" parent="1" source="aN2CIeyYc0d-qHaQi9qx-12" target="aN2CIeyYc0d-qHaQi9qx-9" edge="1">
                    <mxGeometry width="50" height="50" relative="1" as="geometry">
                        <mxPoint x="579" y="290" as="sourcePoint"/>
                        <mxPoint x="679" y="290" as="targetPoint"/>
                    </mxGeometry>
                </mxCell>
                <mxCell id="aN2CIeyYc0d-qHaQi9qx-16" value="&lt;u&gt;nome_lista&lt;/u&gt;" style="ellipse;whiteSpace=wrap;html=1;" parent="1" vertex="1">
                    <mxGeometry x="594" y="50" width="70" height="50" as="geometry"/>
                </mxCell>
                <mxCell id="aN2CIeyYc0d-qHaQi9qx-17" value="" style="endArrow=none;html=1;rounded=0;exitX=0.5;exitY=1;exitDx=0;exitDy=0;entryX=0.5;entryY=0;entryDx=0;entryDy=0;" parent="1" source="aN2CIeyYc0d-qHaQi9qx-16" target="aN2CIeyYc0d-qHaQi9qx-12" edge="1">
                    <mxGeometry width="50" height="50" relative="1" as="geometry">
                        <mxPoint x="739" y="260" as="sourcePoint"/>
                        <mxPoint x="689" y="120" as="targetPoint"/>
                    </mxGeometry>
                </mxCell>
                <mxCell id="aN2CIeyYc0d-qHaQi9qx-18" value="eh_favorita" style="ellipse;whiteSpace=wrap;html=1;" parent="1" vertex="1">
                    <mxGeometry x="669" y="50" width="70" height="50" as="geometry"/>
                </mxCell>
                <mxCell id="aN2CIeyYc0d-qHaQi9qx-19" value="" style="endArrow=none;html=1;rounded=0;exitX=0.5;exitY=1;exitDx=0;exitDy=0;entryX=0.5;entryY=0;entryDx=0;entryDy=0;" parent="1" source="aN2CIeyYc0d-qHaQi9qx-18" target="aN2CIeyYc0d-qHaQi9qx-12" edge="1">
                    <mxGeometry width="50" height="50" relative="1" as="geometry">
                        <mxPoint x="669" y="280" as="sourcePoint"/>
                        <mxPoint x="689" y="120" as="targetPoint"/>
                    </mxGeometry>
                </mxCell>
                <mxCell id="aN2CIeyYc0d-qHaQi9qx-20" value="midia" style="rounded=0;whiteSpace=wrap;html=1;" parent="1" vertex="1">
                    <mxGeometry x="670" y="554" width="100" height="60" as="geometry"/>
                </mxCell>
                <mxCell id="aN2CIeyYc0d-qHaQi9qx-21" value="pertence" style="rhombus;whiteSpace=wrap;html=1;" parent="1" vertex="1">
                    <mxGeometry x="630" y="355" width="100" height="60" as="geometry"/>
                </mxCell>
                <mxCell id="aN2CIeyYc0d-qHaQi9qx-22" value="" style="endArrow=none;html=1;rounded=0;startArrow=ERzeroToMany;startFill=0;exitX=0.5;exitY=1;exitDx=0;exitDy=0;entryX=0.5;entryY=0;entryDx=0;entryDy=0;" parent="1" source="aN2CIeyYc0d-qHaQi9qx-12" target="aN2CIeyYc0d-qHaQi9qx-21" edge="1">
                    <mxGeometry width="50" height="50" relative="1" as="geometry">
                        <mxPoint x="749" y="360" as="sourcePoint"/>
                        <mxPoint x="849" y="360" as="targetPoint"/>
                    </mxGeometry>
                </mxCell>
                <mxCell id="aN2CIeyYc0d-qHaQi9qx-23" value="" style="endArrow=none;html=1;rounded=0;startArrow=ERzeroToMany;startFill=0;entryX=0.5;entryY=1;entryDx=0;entryDy=0;exitX=0.25;exitY=0;exitDx=0;exitDy=0;" parent="1" source="aN2CIeyYc0d-qHaQi9qx-20" target="aN2CIeyYc0d-qHaQi9qx-21" edge="1">
                    <mxGeometry width="50" height="50" relative="1" as="geometry">
                        <mxPoint x="459" y="350" as="sourcePoint"/>
                        <mxPoint x="559" y="350" as="targetPoint"/>
                    </mxGeometry>
                </mxCell>
                <mxCell id="aN2CIeyYc0d-qHaQi9qx-24" value="avalia" style="rhombus;whiteSpace=wrap;html=1;" parent="1" vertex="1">
                    <mxGeometry x="380" y="355" width="100" height="60" as="geometry"/>
                </mxCell>
                <mxCell id="aN2CIeyYc0d-qHaQi9qx-25" value="" style="endArrow=none;html=1;rounded=0;startArrow=ERzeroToMany;startFill=0;entryX=0.5;entryY=0;entryDx=0;entryDy=0;exitX=0.5;exitY=1;exitDx=0;exitDy=0;" parent="1" source="aN2CIeyYc0d-qHaQi9qx-1" target="aN2CIeyYc0d-qHaQi9qx-24" edge="1">
                    <mxGeometry width="50" height="50" relative="1" as="geometry">
                        <mxPoint x="249" y="320" as="sourcePoint"/>
                        <mxPoint x="349" y="320" as="targetPoint"/>
                    </mxGeometry>
                </mxCell>
                <mxCell id="aN2CIeyYc0d-qHaQi9qx-26" value="" style="endArrow=none;html=1;rounded=0;startArrow=ERzeroToMany;startFill=0;entryX=1;entryY=0.5;entryDx=0;entryDy=0;exitX=0;exitY=0.25;exitDx=0;exitDy=0;" parent="1" source="aN2CIeyYc0d-qHaQi9qx-20" target="aN2CIeyYc0d-qHaQi9qx-24" edge="1">
                    <mxGeometry width="50" height="50" relative="1" as="geometry">
                        <mxPoint x="359" y="420" as="sourcePoint"/>
                        <mxPoint x="459" y="420" as="targetPoint"/>
                    </mxGeometry>
                </mxCell>
                <mxCell id="aN2CIeyYc0d-qHaQi9qx-27" value="nota" style="ellipse;whiteSpace=wrap;html=1;" parent="1" vertex="1">
                    <mxGeometry x="310" y="400" width="70" height="50" as="geometry"/>
                </mxCell>
                <mxCell id="aN2CIeyYc0d-qHaQi9qx-28" value="resenha" style="ellipse;whiteSpace=wrap;html=1;" parent="1" vertex="1">
                    <mxGeometry x="379" y="430" width="70" height="50" as="geometry"/>
                </mxCell>
                <mxCell id="aN2CIeyYc0d-qHaQi9qx-29" value="" style="endArrow=none;html=1;rounded=0;exitX=0;exitY=1;exitDx=0;exitDy=0;entryX=0.5;entryY=0;entryDx=0;entryDy=0;" parent="1" source="aN2CIeyYc0d-qHaQi9qx-24" target="aN2CIeyYc0d-qHaQi9qx-28" edge="1">
                    <mxGeometry width="50" height="50" relative="1" as="geometry">
                        <mxPoint x="389" y="490" as="sourcePoint"/>
                        <mxPoint x="489" y="490" as="targetPoint"/>
                    </mxGeometry>
                </mxCell>
                <mxCell id="aN2CIeyYc0d-qHaQi9qx-30" value="" style="endArrow=none;html=1;rounded=0;exitX=1;exitY=0.5;exitDx=0;exitDy=0;entryX=0;entryY=1;entryDx=0;entryDy=0;" parent="1" source="aN2CIeyYc0d-qHaQi9qx-27" target="aN2CIeyYc0d-qHaQi9qx-24" edge="1">
                    <mxGeometry width="50" height="50" relative="1" as="geometry">
                        <mxPoint x="179" y="540" as="sourcePoint"/>
                        <mxPoint x="279" y="540" as="targetPoint"/>
                    </mxGeometry>
                </mxCell>
                <mxCell id="g6gGM8oyq0tV6bERqfFD-2" style="rounded=0;orthogonalLoop=1;jettySize=auto;html=1;entryX=0.25;entryY=0;entryDx=0;entryDy=0;endArrow=none;endFill=0;exitX=0.378;exitY=0.18;exitDx=0;exitDy=0;exitPerimeter=0;" parent="1" source="aN2CIeyYc0d-qHaQi9qx-31" target="g6gGM8oyq0tV6bERqfFD-1" edge="1">
                    <mxGeometry relative="1" as="geometry"/>
                </mxCell>
                <mxCell id="aN2CIeyYc0d-qHaQi9qx-31" value="" style="triangle;whiteSpace=wrap;html=1;rotation=90;" parent="1" vertex="1">
                    <mxGeometry x="897" y="777.5" width="48.33" height="65" as="geometry"/>
                </mxCell>
                <mxCell id="aN2CIeyYc0d-qHaQi9qx-32" value="" style="endArrow=none;html=1;rounded=0;exitX=0.5;exitY=1;exitDx=0;exitDy=0;entryX=0;entryY=0.5;entryDx=0;entryDy=0;" parent="1" source="aN2CIeyYc0d-qHaQi9qx-20" target="aN2CIeyYc0d-qHaQi9qx-31" edge="1">
                    <mxGeometry width="50" height="50" relative="1" as="geometry">
                        <mxPoint x="690" y="580" as="sourcePoint"/>
                        <mxPoint x="790" y="580" as="targetPoint"/>
                    </mxGeometry>
                </mxCell>
                <mxCell id="aN2CIeyYc0d-qHaQi9qx-33" value="serie" style="rounded=0;whiteSpace=wrap;html=1;" parent="1" vertex="1">
                    <mxGeometry x="609" y="1120" width="100" height="60" as="geometry"/>
                </mxCell>
                <mxCell id="aN2CIeyYc0d-qHaQi9qx-34" value="filme" style="rounded=0;whiteSpace=wrap;html=1;" parent="1" vertex="1">
                    <mxGeometry x="790" y="1120" width="100" height="60" as="geometry"/>
                </mxCell>
                <mxCell id="aN2CIeyYc0d-qHaQi9qx-35" value="livro" style="rounded=0;whiteSpace=wrap;html=1;" parent="1" vertex="1">
                    <mxGeometry x="940" y="1110" width="100" height="60" as="geometry"/>
                </mxCell>
                <mxCell id="aN2CIeyYc0d-qHaQi9qx-36" value="" style="endArrow=none;html=1;rounded=0;entryX=0.5;entryY=1;entryDx=0;entryDy=0;exitX=0.5;exitY=0;exitDx=0;exitDy=0;" parent="1" source="aN2CIeyYc0d-qHaQi9qx-33" target="aN2CIeyYc0d-qHaQi9qx-31" edge="1">
                    <mxGeometry width="50" height="50" relative="1" as="geometry">
                        <mxPoint x="710" y="670" as="sourcePoint"/>
                        <mxPoint x="810" y="670" as="targetPoint"/>
                    </mxGeometry>
                </mxCell>
                <mxCell id="aN2CIeyYc0d-qHaQi9qx-37" value="" style="endArrow=none;html=1;rounded=0;exitX=0.5;exitY=0;exitDx=0;exitDy=0;entryX=0.5;entryY=0;entryDx=0;entryDy=0;" parent="1" source="aN2CIeyYc0d-qHaQi9qx-34" target="aN2CIeyYc0d-qHaQi9qx-31" edge="1">
                    <mxGeometry width="50" height="50" relative="1" as="geometry">
                        <mxPoint x="830" y="770" as="sourcePoint"/>
                        <mxPoint x="890" y="900" as="targetPoint"/>
                    </mxGeometry>
                </mxCell>
                <mxCell id="aN2CIeyYc0d-qHaQi9qx-38" value="" style="endArrow=none;html=1;rounded=0;exitX=0.5;exitY=0;exitDx=0;exitDy=0;entryX=0.5;entryY=0;entryDx=0;entryDy=0;" parent="1" source="aN2CIeyYc0d-qHaQi9qx-35" target="aN2CIeyYc0d-qHaQi9qx-31" edge="1">
                    <mxGeometry width="50" height="50" relative="1" as="geometry">
                        <mxPoint x="980" y="750" as="sourcePoint"/>
                        <mxPoint x="1080" y="750" as="targetPoint"/>
                    </mxGeometry>
                </mxCell>
                <mxCell id="aN2CIeyYc0d-qHaQi9qx-39" value="amizade" style="rhombus;whiteSpace=wrap;html=1;" parent="1" vertex="1">
                    <mxGeometry x="140" y="140" width="100" height="60" as="geometry"/>
                </mxCell>
                <mxCell id="aN2CIeyYc0d-qHaQi9qx-40" value="data_inicio" style="ellipse;whiteSpace=wrap;html=1;" parent="1" vertex="1">
                    <mxGeometry x="149" y="240" width="70" height="50" as="geometry"/>
                </mxCell>
                <mxCell id="aN2CIeyYc0d-qHaQi9qx-41" value="" style="endArrow=none;html=1;rounded=0;exitX=0.5;exitY=0;exitDx=0;exitDy=0;entryX=0;entryY=1;entryDx=0;entryDy=0;" parent="1" source="aN2CIeyYc0d-qHaQi9qx-40" target="aN2CIeyYc0d-qHaQi9qx-39" edge="1">
                    <mxGeometry width="50" height="50" relative="1" as="geometry">
                        <mxPoint x="220" y="260" as="sourcePoint"/>
                        <mxPoint x="320" y="260" as="targetPoint"/>
                    </mxGeometry>
                </mxCell>
                <mxCell id="aN2CIeyYc0d-qHaQi9qx-42" value="duracao" style="ellipse;whiteSpace=wrap;html=1;dashed=1;" parent="1" vertex="1">
                    <mxGeometry x="80" y="210" width="70" height="50" as="geometry"/>
                </mxCell>
                <mxCell id="aN2CIeyYc0d-qHaQi9qx-43" value="" style="endArrow=none;html=1;rounded=0;exitX=1;exitY=0;exitDx=0;exitDy=0;entryX=0;entryY=1;entryDx=0;entryDy=0;" parent="1" source="aN2CIeyYc0d-qHaQi9qx-42" target="aN2CIeyYc0d-qHaQi9qx-39" edge="1">
                    <mxGeometry width="50" height="50" relative="1" as="geometry">
                        <mxPoint x="160" y="320" as="sourcePoint"/>
                        <mxPoint x="260" y="320" as="targetPoint"/>
                    </mxGeometry>
                </mxCell>
                <mxCell id="aN2CIeyYc0d-qHaQi9qx-44" value="num_midias" style="ellipse;whiteSpace=wrap;html=1;dashed=1;" parent="1" vertex="1">
                    <mxGeometry x="750" y="50" width="80" height="50" as="geometry"/>
                </mxCell>
                <mxCell id="aN2CIeyYc0d-qHaQi9qx-45" value="" style="endArrow=none;html=1;rounded=0;entryX=0.5;entryY=1;entryDx=0;entryDy=0;exitX=0.5;exitY=0;exitDx=0;exitDy=0;" parent="1" source="aN2CIeyYc0d-qHaQi9qx-12" target="aN2CIeyYc0d-qHaQi9qx-44" edge="1">
                    <mxGeometry width="50" height="50" relative="1" as="geometry">
                        <mxPoint x="810" y="150" as="sourcePoint"/>
                        <mxPoint x="940" y="180" as="targetPoint"/>
                    </mxGeometry>
                </mxCell>
                <mxCell id="aN2CIeyYc0d-qHaQi9qx-46" value="nome_midia" style="ellipse;whiteSpace=wrap;html=1;" parent="1" vertex="1">
                    <mxGeometry x="837.67" y="470" width="81" height="50" as="geometry"/>
                </mxCell>
                <mxCell id="aN2CIeyYc0d-qHaQi9qx-47" value="data_lanc" style="ellipse;whiteSpace=wrap;html=1;" parent="1" vertex="1">
                    <mxGeometry x="860.0000000000001" y="530" width="70" height="50" as="geometry"/>
                </mxCell>
                <mxCell id="aN2CIeyYc0d-qHaQi9qx-48" value="resumo" style="ellipse;whiteSpace=wrap;html=1;" parent="1" vertex="1">
                    <mxGeometry x="860.0000000000001" y="590" width="70" height="50" as="geometry"/>
                </mxCell>
                <mxCell id="aN2CIeyYc0d-qHaQi9qx-49" value="" style="group" parent="1" vertex="1" connectable="0">
                    <mxGeometry x="850.0000000000001" y="650" width="70" height="50" as="geometry"/>
                </mxCell>
                <mxCell id="aN2CIeyYc0d-qHaQi9qx-50" value="" style="ellipse;whiteSpace=wrap;html=1;" parent="aN2CIeyYc0d-qHaQi9qx-49" vertex="1">
                    <mxGeometry width="70" height="50" as="geometry"/>
                </mxCell>
                <mxCell id="aN2CIeyYc0d-qHaQi9qx-51" value="generos" style="ellipse;whiteSpace=wrap;html=1;" parent="aN2CIeyYc0d-qHaQi9qx-49" vertex="1">
                    <mxGeometry x="3.5" y="2.5" width="63" height="45" as="geometry"/>
                </mxCell>
                <mxCell id="aN2CIeyYc0d-qHaQi9qx-52" value="" style="endArrow=none;html=1;rounded=0;startArrow=ERzeroToMany;startFill=0;exitX=0;exitY=0.25;exitDx=0;exitDy=0;entryX=1;entryY=0;entryDx=0;entryDy=0;" parent="1" source="aN2CIeyYc0d-qHaQi9qx-1" target="aN2CIeyYc0d-qHaQi9qx-39" edge="1">
                    <mxGeometry width="50" height="50" relative="1" as="geometry">
                        <mxPoint x="230" y="210" as="sourcePoint"/>
                        <mxPoint x="330" y="210" as="targetPoint"/>
                    </mxGeometry>
                </mxCell>
                <mxCell id="aN2CIeyYc0d-qHaQi9qx-53" value="" style="endArrow=none;html=1;rounded=0;startArrow=ERzeroToMany;startFill=0;entryX=1;entryY=1;entryDx=0;entryDy=0;exitX=0;exitY=0.75;exitDx=0;exitDy=0;" parent="1" source="aN2CIeyYc0d-qHaQi9qx-1" target="aN2CIeyYc0d-qHaQi9qx-39" edge="1">
                    <mxGeometry width="50" height="50" relative="1" as="geometry">
                        <mxPoint x="250" y="210" as="sourcePoint"/>
                        <mxPoint x="350" y="210" as="targetPoint"/>
                    </mxGeometry>
                </mxCell>
                <mxCell id="aN2CIeyYc0d-qHaQi9qx-54" value="" style="endArrow=none;html=1;rounded=0;startArrow=ERoneToMany;startFill=0;entryX=0.5;entryY=1;entryDx=0;entryDy=0;exitX=0.5;exitY=0;exitDx=0;exitDy=0;" parent="1" source="aN2CIeyYc0d-qHaQi9qx-76" target="aN2CIeyYc0d-qHaQi9qx-70" edge="1">
                    <mxGeometry width="50" height="50" relative="1" as="geometry">
                        <mxPoint x="659" y="1339.9999999999998" as="sourcePoint"/>
                        <mxPoint x="659" y="1289.9999999999998" as="targetPoint"/>
                    </mxGeometry>
                </mxCell>
                <mxCell id="aN2CIeyYc0d-qHaQi9qx-55" value="" style="endArrow=none;html=1;rounded=0;startArrow=ERmandOne;startFill=0;exitX=0.5;exitY=1;exitDx=0;exitDy=0;entryX=0.5;entryY=0;entryDx=0;entryDy=0;" parent="1" source="aN2CIeyYc0d-qHaQi9qx-33" target="aN2CIeyYc0d-qHaQi9qx-70" edge="1">
                    <mxGeometry width="50" height="50" relative="1" as="geometry">
                        <mxPoint x="759" y="1230" as="sourcePoint"/>
                        <mxPoint x="659" y="1229.9999999999998" as="targetPoint"/>
                    </mxGeometry>
                </mxCell>
                <mxCell id="aN2CIeyYc0d-qHaQi9qx-56" value="num_temp" style="ellipse;whiteSpace=wrap;html=1;dashed=1;" parent="1" vertex="1">
                    <mxGeometry x="619" y="1010" width="70" height="50" as="geometry"/>
                </mxCell>
                <mxCell id="aN2CIeyYc0d-qHaQi9qx-57" value="" style="endArrow=none;html=1;rounded=0;entryX=0.12;entryY=0.016;entryDx=0;entryDy=0;entryPerimeter=0;" parent="1" source="aN2CIeyYc0d-qHaQi9qx-56" target="aN2CIeyYc0d-qHaQi9qx-33" edge="1">
                    <mxGeometry width="50" height="50" relative="1" as="geometry">
                        <mxPoint x="659" y="1010" as="sourcePoint"/>
                        <mxPoint x="759" y="1010" as="targetPoint"/>
                    </mxGeometry>
                </mxCell>
                <mxCell id="aN2CIeyYc0d-qHaQi9qx-58" value="data_final" style="ellipse;whiteSpace=wrap;html=1;" parent="1" vertex="1">
                    <mxGeometry x="549" y="1040" width="70" height="50" as="geometry"/>
                </mxCell>
                <mxCell id="aN2CIeyYc0d-qHaQi9qx-59" value="" style="endArrow=none;html=1;rounded=0;exitX=0.5;exitY=1;exitDx=0;exitDy=0;entryX=0;entryY=0.25;entryDx=0;entryDy=0;" parent="1" source="aN2CIeyYc0d-qHaQi9qx-58" target="aN2CIeyYc0d-qHaQi9qx-33" edge="1">
                    <mxGeometry width="50" height="50" relative="1" as="geometry">
                        <mxPoint x="599" y="1040" as="sourcePoint"/>
                        <mxPoint x="699" y="1040" as="targetPoint"/>
                    </mxGeometry>
                </mxCell>
                <mxCell id="aN2CIeyYc0d-qHaQi9qx-60" value="&lt;u&gt;numero_temp&lt;/u&gt;" style="ellipse;whiteSpace=wrap;html=1;" parent="1" vertex="1">
                    <mxGeometry x="490" y="1370" width="89" height="50" as="geometry"/>
                </mxCell>
                <mxCell id="aN2CIeyYc0d-qHaQi9qx-61" value="" style="endArrow=none;html=1;rounded=0;exitX=0;exitY=0.5;exitDx=0;exitDy=0;entryX=1;entryY=0.5;entryDx=0;entryDy=0;" parent="1" source="aN2CIeyYc0d-qHaQi9qx-77" target="aN2CIeyYc0d-qHaQi9qx-60" edge="1">
                    <mxGeometry width="50" height="50" relative="1" as="geometry">
                        <mxPoint x="709" y="1369.9999999999998" as="sourcePoint"/>
                        <mxPoint x="879" y="1340" as="targetPoint"/>
                    </mxGeometry>
                </mxCell>
                <mxCell id="aN2CIeyYc0d-qHaQi9qx-62" value="" style="endArrow=none;html=1;rounded=0;exitX=0;exitY=0.5;exitDx=0;exitDy=0;entryX=1;entryY=0.5;entryDx=0;entryDy=0;" parent="1" source="aN2CIeyYc0d-qHaQi9qx-77" target="aN2CIeyYc0d-qHaQi9qx-63" edge="1">
                    <mxGeometry width="50" height="50" relative="1" as="geometry">
                        <mxPoint x="709" y="1369.9999999999998" as="sourcePoint"/>
                        <mxPoint x="759.0000000000095" y="1394.9999999999998" as="targetPoint"/>
                    </mxGeometry>
                </mxCell>
                <mxCell id="aN2CIeyYc0d-qHaQi9qx-63" value="num_eps" style="ellipse;whiteSpace=wrap;html=1;dashed=1;" parent="1" vertex="1">
                    <mxGeometry x="509" y="1310" width="70" height="50" as="geometry"/>
                </mxCell>
                <mxCell id="aN2CIeyYc0d-qHaQi9qx-64" value="" style="endArrow=none;html=1;rounded=0;startArrow=ERoneToMany;startFill=0;entryX=0.5;entryY=1;entryDx=0;entryDy=0;exitX=0.5;exitY=0;exitDx=0;exitDy=0;" parent="1" source="aN2CIeyYc0d-qHaQi9qx-79" target="aN2CIeyYc0d-qHaQi9qx-73" edge="1">
                    <mxGeometry width="50" height="50" relative="1" as="geometry">
                        <mxPoint x="669" y="1570" as="sourcePoint"/>
                        <mxPoint x="659" y="1509.9999999999998" as="targetPoint"/>
                    </mxGeometry>
                </mxCell>
                <mxCell id="aN2CIeyYc0d-qHaQi9qx-65" value="" style="endArrow=none;html=1;rounded=0;startArrow=ERmandOne;startFill=0;exitX=0.5;exitY=1;exitDx=0;exitDy=0;entryX=0.5;entryY=0;entryDx=0;entryDy=0;" parent="1" source="aN2CIeyYc0d-qHaQi9qx-76" target="aN2CIeyYc0d-qHaQi9qx-73" edge="1">
                    <mxGeometry width="50" height="50" relative="1" as="geometry">
                        <mxPoint x="659" y="1399.9999999999998" as="sourcePoint"/>
                        <mxPoint x="659" y="1449.9999999999998" as="targetPoint"/>
                    </mxGeometry>
                </mxCell>
                <mxCell id="aN2CIeyYc0d-qHaQi9qx-66" value="duracao" style="ellipse;whiteSpace=wrap;html=1;" parent="1" vertex="1">
                    <mxGeometry x="479" y="1629" width="70" height="50" as="geometry"/>
                </mxCell>
                <mxCell id="aN2CIeyYc0d-qHaQi9qx-67" value="nome_ep" style="ellipse;whiteSpace=wrap;html=1;" parent="1" vertex="1">
                    <mxGeometry x="490" y="1574" width="70" height="50" as="geometry"/>
                </mxCell>
                <mxCell id="aN2CIeyYc0d-qHaQi9qx-68" value="descricao" style="ellipse;whiteSpace=wrap;html=1;" parent="1" vertex="1">
                    <mxGeometry x="530" y="1670" width="70" height="50" as="geometry"/>
                </mxCell>
                <mxCell id="aN2CIeyYc0d-qHaQi9qx-69" value="" style="group;rotation=90;" parent="1" vertex="1" connectable="0">
                    <mxGeometry x="609" y="1230" width="100" height="60" as="geometry"/>
                </mxCell>
                <mxCell id="aN2CIeyYc0d-qHaQi9qx-70" value="" style="rhombus;whiteSpace=wrap;html=1;" parent="aN2CIeyYc0d-qHaQi9qx-69" vertex="1">
                    <mxGeometry width="100" height="60" as="geometry"/>
                </mxCell>
                <mxCell id="aN2CIeyYc0d-qHaQi9qx-71" value="contem" style="rhombus;whiteSpace=wrap;html=1;" parent="aN2CIeyYc0d-qHaQi9qx-69" vertex="1">
                    <mxGeometry x="8.339999999999975" y="5" width="83.33" height="50" as="geometry"/>
                </mxCell>
                <mxCell id="aN2CIeyYc0d-qHaQi9qx-72" value="" style="group" parent="1" vertex="1" connectable="0">
                    <mxGeometry x="609" y="1450" width="100" height="60" as="geometry"/>
                </mxCell>
                <mxCell id="aN2CIeyYc0d-qHaQi9qx-73" value="" style="rhombus;whiteSpace=wrap;html=1;" parent="aN2CIeyYc0d-qHaQi9qx-72" vertex="1">
                    <mxGeometry width="100" height="60" as="geometry"/>
                </mxCell>
                <mxCell id="aN2CIeyYc0d-qHaQi9qx-74" value="contem" style="rhombus;whiteSpace=wrap;html=1;" parent="aN2CIeyYc0d-qHaQi9qx-72" vertex="1">
                    <mxGeometry x="8.339999999999975" y="5" width="83.33" height="50" as="geometry"/>
                </mxCell>
                <mxCell id="aN2CIeyYc0d-qHaQi9qx-75" value="" style="group" parent="1" vertex="1" connectable="0">
                    <mxGeometry x="609" y="1340" width="100" height="60" as="geometry"/>
                </mxCell>
                <mxCell id="aN2CIeyYc0d-qHaQi9qx-76" value="" style="rounded=0;whiteSpace=wrap;html=1;" parent="aN2CIeyYc0d-qHaQi9qx-75" vertex="1">
                    <mxGeometry width="100" height="60" as="geometry"/>
                </mxCell>
                <mxCell id="aN2CIeyYc0d-qHaQi9qx-77" value="temporada" style="rounded=0;whiteSpace=wrap;html=1;" parent="aN2CIeyYc0d-qHaQi9qx-75" vertex="1">
                    <mxGeometry x="5" y="5" width="90" height="50" as="geometry"/>
                </mxCell>
                <mxCell id="aN2CIeyYc0d-qHaQi9qx-78" value="" style="group" parent="1" vertex="1" connectable="0">
                    <mxGeometry x="609" y="1569" width="100" height="60" as="geometry"/>
                </mxCell>
                <mxCell id="aN2CIeyYc0d-qHaQi9qx-79" value="" style="rounded=0;whiteSpace=wrap;html=1;" parent="aN2CIeyYc0d-qHaQi9qx-78" vertex="1">
                    <mxGeometry width="100" height="60" as="geometry"/>
                </mxCell>
                <mxCell id="aN2CIeyYc0d-qHaQi9qx-80" value="episodio" style="rounded=0;whiteSpace=wrap;html=1;" parent="aN2CIeyYc0d-qHaQi9qx-78" vertex="1">
                    <mxGeometry x="5" y="5" width="90" height="50" as="geometry"/>
                </mxCell>
                <mxCell id="aN2CIeyYc0d-qHaQi9qx-81" value="" style="endArrow=none;html=1;rounded=0;exitX=1;exitY=0.5;exitDx=0;exitDy=0;entryX=0;entryY=0.5;entryDx=0;entryDy=0;" parent="1" source="aN2CIeyYc0d-qHaQi9qx-67" target="aN2CIeyYc0d-qHaQi9qx-79" edge="1">
                    <mxGeometry width="50" height="50" relative="1" as="geometry">
                        <mxPoint x="569" y="1520" as="sourcePoint"/>
                        <mxPoint x="669" y="1520" as="targetPoint"/>
                    </mxGeometry>
                </mxCell>
                <mxCell id="aN2CIeyYc0d-qHaQi9qx-82" value="" style="endArrow=none;html=1;rounded=0;exitX=1;exitY=0.5;exitDx=0;exitDy=0;entryX=0;entryY=0.5;entryDx=0;entryDy=0;" parent="1" source="aN2CIeyYc0d-qHaQi9qx-66" target="aN2CIeyYc0d-qHaQi9qx-79" edge="1">
                    <mxGeometry width="50" height="50" relative="1" as="geometry">
                        <mxPoint x="669" y="1670" as="sourcePoint"/>
                        <mxPoint x="769" y="1670" as="targetPoint"/>
                    </mxGeometry>
                </mxCell>
                <mxCell id="aN2CIeyYc0d-qHaQi9qx-83" value="" style="endArrow=none;html=1;rounded=0;exitX=1;exitY=0;exitDx=0;exitDy=0;entryX=0;entryY=0.5;entryDx=0;entryDy=0;" parent="1" source="aN2CIeyYc0d-qHaQi9qx-68" target="aN2CIeyYc0d-qHaQi9qx-79" edge="1">
                    <mxGeometry width="50" height="50" relative="1" as="geometry">
                        <mxPoint x="619" y="1690" as="sourcePoint"/>
                        <mxPoint x="719" y="1690" as="targetPoint"/>
                    </mxGeometry>
                </mxCell>
                <mxCell id="aN2CIeyYc0d-qHaQi9qx-84" value="ator" style="rounded=0;whiteSpace=wrap;html=1;" parent="1" vertex="1">
                    <mxGeometry x="-39" y="750" width="100" height="60" as="geometry"/>
                </mxCell>
                <mxCell id="aN2CIeyYc0d-qHaQi9qx-85" value="participa" style="rhombus;whiteSpace=wrap;html=1;" parent="1" vertex="1">
                    <mxGeometry x="250" y="604" width="100" height="60" as="geometry"/>
                </mxCell>
                <mxCell id="aN2CIeyYc0d-qHaQi9qx-86" value="" style="endArrow=none;html=1;rounded=0;entryX=0.5;entryY=0;entryDx=0;entryDy=0;exitX=0.5;exitY=1;exitDx=0;exitDy=0;" parent="1" source="aN2CIeyYc0d-qHaQi9qx-87" target="aN2CIeyYc0d-qHaQi9qx-84" edge="1">
                    <mxGeometry width="50" height="50" relative="1" as="geometry">
                        <mxPoint x="61" y="690" as="sourcePoint"/>
                        <mxPoint x="221" y="690" as="targetPoint"/>
                    </mxGeometry>
                </mxCell>
                <mxCell id="aN2CIeyYc0d-qHaQi9qx-87" value="nome_ator" style="ellipse;whiteSpace=wrap;html=1;" parent="1" vertex="1">
                    <mxGeometry x="-79" y="650" width="70" height="50" as="geometry"/>
                </mxCell>
                <mxCell id="aN2CIeyYc0d-qHaQi9qx-88" value="data_nasc" style="ellipse;whiteSpace=wrap;html=1;" parent="1" vertex="1">
                    <mxGeometry x="1" y="650" width="70" height="50" as="geometry"/>
                </mxCell>
                <mxCell id="aN2CIeyYc0d-qHaQi9qx-89" value="" style="endArrow=none;html=1;rounded=0;exitX=0.5;exitY=1;exitDx=0;exitDy=0;entryX=0.5;entryY=0;entryDx=0;entryDy=0;" parent="1" source="aN2CIeyYc0d-qHaQi9qx-88" target="aN2CIeyYc0d-qHaQi9qx-84" edge="1">
                    <mxGeometry width="50" height="50" relative="1" as="geometry">
                        <mxPoint x="41" y="600" as="sourcePoint"/>
                        <mxPoint x="141" y="600" as="targetPoint"/>
                    </mxGeometry>
                </mxCell>
                <mxCell id="aN2CIeyYc0d-qHaQi9qx-90" value="idade" style="ellipse;whiteSpace=wrap;html=1;dashed=1;" parent="1" vertex="1">
                    <mxGeometry x="71" y="670" width="70" height="50" as="geometry"/>
                </mxCell>
                <mxCell id="aN2CIeyYc0d-qHaQi9qx-91" value="" style="endArrow=none;html=1;rounded=0;exitX=0.5;exitY=0;exitDx=0;exitDy=0;entryX=0.5;entryY=1;entryDx=0;entryDy=0;" parent="1" source="aN2CIeyYc0d-qHaQi9qx-84" target="aN2CIeyYc0d-qHaQi9qx-90" edge="1">
                    <mxGeometry width="50" height="50" relative="1" as="geometry">
                        <mxPoint x="91" y="610" as="sourcePoint"/>
                        <mxPoint x="191" y="610" as="targetPoint"/>
                    </mxGeometry>
                </mxCell>
                <mxCell id="aN2CIeyYc0d-qHaQi9qx-92" value="" style="endArrow=none;html=1;rounded=0;exitX=1;exitY=0.5;exitDx=0;exitDy=0;entryX=0.5;entryY=1;entryDx=0;entryDy=0;" parent="1" source="aN2CIeyYc0d-qHaQi9qx-20" target="aN2CIeyYc0d-qHaQi9qx-46" edge="1">
                    <mxGeometry width="50" height="50" relative="1" as="geometry">
                        <mxPoint x="841.83" y="570" as="sourcePoint"/>
                        <mxPoint x="1026.83" y="406" as="targetPoint"/>
                    </mxGeometry>
                </mxCell>
                <mxCell id="aN2CIeyYc0d-qHaQi9qx-93" value="" style="endArrow=none;html=1;rounded=0;exitX=1;exitY=0.5;exitDx=0;exitDy=0;entryX=0;entryY=1;entryDx=0;entryDy=0;" parent="1" source="aN2CIeyYc0d-qHaQi9qx-20" target="aN2CIeyYc0d-qHaQi9qx-47" edge="1">
                    <mxGeometry width="50" height="50" relative="1" as="geometry">
                        <mxPoint x="841.83" y="570" as="sourcePoint"/>
                        <mxPoint x="946.83" y="506" as="targetPoint"/>
                    </mxGeometry>
                </mxCell>
                <mxCell id="aN2CIeyYc0d-qHaQi9qx-94" value="" style="endArrow=none;html=1;rounded=0;exitX=1;exitY=0.5;exitDx=0;exitDy=0;entryX=0;entryY=1;entryDx=0;entryDy=0;" parent="1" source="aN2CIeyYc0d-qHaQi9qx-20" target="aN2CIeyYc0d-qHaQi9qx-48" edge="1">
                    <mxGeometry width="50" height="50" relative="1" as="geometry">
                        <mxPoint x="841.83" y="570" as="sourcePoint"/>
                        <mxPoint x="1056.83" y="456" as="targetPoint"/>
                    </mxGeometry>
                </mxCell>
                <mxCell id="aN2CIeyYc0d-qHaQi9qx-95" value="" style="endArrow=none;html=1;rounded=0;entryX=0;entryY=0.5;entryDx=0;entryDy=0;exitX=1;exitY=0.5;exitDx=0;exitDy=0;" parent="1" source="aN2CIeyYc0d-qHaQi9qx-20" target="aN2CIeyYc0d-qHaQi9qx-50" edge="1">
                    <mxGeometry width="50" height="50" relative="1" as="geometry">
                        <mxPoint x="820" y="580" as="sourcePoint"/>
                        <mxPoint x="956.83" y="526" as="targetPoint"/>
                    </mxGeometry>
                </mxCell>
                <mxCell id="aN2CIeyYc0d-qHaQi9qx-96" value="interpreta" style="rhombus;whiteSpace=wrap;html=1;" parent="1" vertex="1">
                    <mxGeometry x="250" y="970" width="100" height="60" as="geometry"/>
                </mxCell>
                <mxCell id="aN2CIeyYc0d-qHaQi9qx-97" value="" style="endArrow=none;html=1;rounded=0;startArrow=ERmandOne;startFill=0;exitX=0.5;exitY=1;exitDx=0;exitDy=0;entryX=0;entryY=0.5;entryDx=0;entryDy=0;" parent="1" source="aN2CIeyYc0d-qHaQi9qx-84" target="aN2CIeyYc0d-qHaQi9qx-96" edge="1">
                    <mxGeometry width="50" height="50" relative="1" as="geometry">
                        <mxPoint x="-140" y="760" as="sourcePoint"/>
                        <mxPoint x="-40" y="760" as="targetPoint"/>
                    </mxGeometry>
                </mxCell>
                <mxCell id="aN2CIeyYc0d-qHaQi9qx-98" value="diretor" style="rounded=0;whiteSpace=wrap;html=1;" parent="1" vertex="1">
                    <mxGeometry x="90" y="490" width="100" height="60" as="geometry"/>
                </mxCell>
                <mxCell id="aN2CIeyYc0d-qHaQi9qx-99" value="" style="group" parent="1" vertex="1" connectable="0">
                    <mxGeometry x="594" y="820" width="100" height="60" as="geometry"/>
                </mxCell>
                <mxCell id="aN2CIeyYc0d-qHaQi9qx-100" value="" style="rhombus;whiteSpace=wrap;html=1;" parent="aN2CIeyYc0d-qHaQi9qx-99" vertex="1">
                    <mxGeometry width="100" height="60" as="geometry"/>
                </mxCell>
                <mxCell id="aN2CIeyYc0d-qHaQi9qx-101" value="participa" style="rhombus;whiteSpace=wrap;html=1;" parent="aN2CIeyYc0d-qHaQi9qx-99" vertex="1">
                    <mxGeometry x="8.339999999999975" y="5" width="83.33" height="50" as="geometry"/>
                </mxCell>
                <mxCell id="aN2CIeyYc0d-qHaQi9qx-102" value="" style="endArrow=none;html=1;rounded=0;startArrow=ERoneToMany;startFill=0;exitX=0.25;exitY=1;exitDx=0;exitDy=0;entryX=0.5;entryY=0;entryDx=0;entryDy=0;" parent="1" source="aN2CIeyYc0d-qHaQi9qx-20" target="aN2CIeyYc0d-qHaQi9qx-100" edge="1">
                    <mxGeometry width="50" height="50" relative="1" as="geometry">
                        <mxPoint x="510" y="650" as="sourcePoint"/>
                        <mxPoint x="610" y="800" as="targetPoint"/>
                    </mxGeometry>
                </mxCell>
                <mxCell id="aN2CIeyYc0d-qHaQi9qx-103" value="" style="endArrow=none;html=1;rounded=0;startArrow=ERzeroToMany;startFill=0;exitX=1;exitY=0.5;exitDx=0;exitDy=0;entryX=0.5;entryY=1;entryDx=0;entryDy=0;" parent="1" source="aN2CIeyYc0d-qHaQi9qx-156" target="aN2CIeyYc0d-qHaQi9qx-100" edge="1">
                    <mxGeometry width="50" height="50" relative="1" as="geometry">
                        <mxPoint x="319" y="935" as="sourcePoint"/>
                        <mxPoint x="370" y="650" as="targetPoint"/>
                    </mxGeometry>
                </mxCell>
                <mxCell id="aN2CIeyYc0d-qHaQi9qx-104" value="premio" style="rounded=0;whiteSpace=wrap;html=1;" parent="1" vertex="1">
                    <mxGeometry x="359" y="730" width="100" height="60" as="geometry"/>
                </mxCell>
                <mxCell id="aN2CIeyYc0d-qHaQi9qx-105" value="ganha" style="rhombus;whiteSpace=wrap;html=1;" parent="1" vertex="1">
                    <mxGeometry x="185" y="730" width="100" height="60" as="geometry"/>
                </mxCell>
                <mxCell id="aN2CIeyYc0d-qHaQi9qx-106" value="" style="endArrow=none;html=1;rounded=0;startArrow=ERzeroToMany;startFill=0;exitX=0;exitY=0.5;exitDx=0;exitDy=0;entryX=1;entryY=0.5;entryDx=0;entryDy=0;" parent="1" source="aN2CIeyYc0d-qHaQi9qx-104" target="aN2CIeyYc0d-qHaQi9qx-105" edge="1">
                    <mxGeometry width="50" height="50" relative="1" as="geometry">
                        <mxPoint x="417" y="650" as="sourcePoint"/>
                        <mxPoint x="277" y="812.5" as="targetPoint"/>
                    </mxGeometry>
                </mxCell>
                <mxCell id="aN2CIeyYc0d-qHaQi9qx-107" value="" style="endArrow=none;html=1;rounded=0;startArrow=ERmandOne;startFill=0;exitX=1;exitY=1;exitDx=0;exitDy=0;entryX=0;entryY=0.5;entryDx=0;entryDy=0;" parent="1" source="aN2CIeyYc0d-qHaQi9qx-84" target="aN2CIeyYc0d-qHaQi9qx-105" edge="1">
                    <mxGeometry width="50" height="50" relative="1" as="geometry">
                        <mxPoint x="-159" y="760" as="sourcePoint"/>
                        <mxPoint x="-59" y="760" as="targetPoint"/>
                    </mxGeometry>
                </mxCell>
                <mxCell id="aN2CIeyYc0d-qHaQi9qx-108" value="ganha" style="rhombus;whiteSpace=wrap;html=1;" parent="1" vertex="1">
                    <mxGeometry x="519" y="700" width="100" height="60" as="geometry"/>
                </mxCell>
                <mxCell id="aN2CIeyYc0d-qHaQi9qx-109" value="" style="endArrow=none;html=1;rounded=0;startArrow=ERzeroToMany;startFill=0;exitX=1;exitY=0.5;exitDx=0;exitDy=0;entryX=0.5;entryY=1;entryDx=0;entryDy=0;" parent="1" source="aN2CIeyYc0d-qHaQi9qx-104" target="aN2CIeyYc0d-qHaQi9qx-108" edge="1">
                    <mxGeometry width="50" height="50" relative="1" as="geometry">
                        <mxPoint x="420" y="640" as="sourcePoint"/>
                        <mxPoint x="520" y="640" as="targetPoint"/>
                    </mxGeometry>
                </mxCell>
                <mxCell id="aN2CIeyYc0d-qHaQi9qx-110" value="" style="endArrow=none;html=1;rounded=0;startArrow=ERmandOne;startFill=0;entryX=1;entryY=0.5;entryDx=0;entryDy=0;exitX=0;exitY=1;exitDx=0;exitDy=0;" parent="1" source="aN2CIeyYc0d-qHaQi9qx-20" target="aN2CIeyYc0d-qHaQi9qx-108" edge="1">
                    <mxGeometry width="50" height="50" relative="1" as="geometry">
                        <mxPoint x="480" y="650" as="sourcePoint"/>
                        <mxPoint x="580" y="650" as="targetPoint"/>
                    </mxGeometry>
                </mxCell>
                <mxCell id="aN2CIeyYc0d-qHaQi9qx-115" value="categoria" style="ellipse;whiteSpace=wrap;html=1;" parent="1" vertex="1">
                    <mxGeometry x="485" y="835" width="70" height="32.5" as="geometry"/>
                </mxCell>
                <mxCell id="aN2CIeyYc0d-qHaQi9qx-116" value="" style="endArrow=none;html=1;rounded=0;exitX=0.889;exitY=0.018;exitDx=0;exitDy=0;entryX=0.5;entryY=1;entryDx=0;entryDy=0;exitPerimeter=0;" parent="1" source="g6gGM8oyq0tV6bERqfFD-5" target="aN2CIeyYc0d-qHaQi9qx-115" edge="1">
                    <mxGeometry width="50" height="50" relative="1" as="geometry">
                        <mxPoint x="313.5" y="830" as="sourcePoint"/>
                        <mxPoint x="515" y="750" as="targetPoint"/>
                    </mxGeometry>
                </mxCell>
                <mxCell id="aN2CIeyYc0d-qHaQi9qx-117" value="&lt;u&gt;id_ator&lt;/u&gt;" style="ellipse;whiteSpace=wrap;html=1;" parent="1" vertex="1">
                    <mxGeometry x="-139" y="684" width="70" height="50" as="geometry"/>
                </mxCell>
                <mxCell id="aN2CIeyYc0d-qHaQi9qx-118" value="" style="endArrow=none;html=1;rounded=0;exitX=1;exitY=0.5;exitDx=0;exitDy=0;entryX=0.5;entryY=0;entryDx=0;entryDy=0;" parent="1" source="aN2CIeyYc0d-qHaQi9qx-117" target="aN2CIeyYc0d-qHaQi9qx-84" edge="1">
                    <mxGeometry width="50" height="50" relative="1" as="geometry">
                        <mxPoint x="-109" y="800" as="sourcePoint"/>
                        <mxPoint x="-9" y="800" as="targetPoint"/>
                    </mxGeometry>
                </mxCell>
                <mxCell id="aN2CIeyYc0d-qHaQi9qx-119" value="" style="endArrow=none;html=1;rounded=0;startArrow=ERoneToMany;startFill=0;exitX=0;exitY=0.75;exitDx=0;exitDy=0;entryX=1;entryY=0.5;entryDx=0;entryDy=0;" parent="1" source="aN2CIeyYc0d-qHaQi9qx-20" target="aN2CIeyYc0d-qHaQi9qx-85" edge="1">
                    <mxGeometry width="50" height="50" relative="1" as="geometry">
                        <mxPoint x="450" y="550" as="sourcePoint"/>
                        <mxPoint x="550" y="550" as="targetPoint"/>
                    </mxGeometry>
                </mxCell>
                <mxCell id="aN2CIeyYc0d-qHaQi9qx-120" value="dirige" style="rhombus;whiteSpace=wrap;html=1;" parent="1" vertex="1">
                    <mxGeometry x="349" y="530" width="100" height="60" as="geometry"/>
                </mxCell>
                <mxCell id="aN2CIeyYc0d-qHaQi9qx-121" value="" style="endArrow=none;html=1;rounded=0;startArrow=ERoneToMany;startFill=0;exitX=0;exitY=0.5;exitDx=0;exitDy=0;entryX=1;entryY=0.5;entryDx=0;entryDy=0;" parent="1" source="aN2CIeyYc0d-qHaQi9qx-20" target="aN2CIeyYc0d-qHaQi9qx-120" edge="1">
                    <mxGeometry width="50" height="50" relative="1" as="geometry">
                        <mxPoint x="220" y="540" as="sourcePoint"/>
                        <mxPoint x="490" y="540" as="targetPoint"/>
                    </mxGeometry>
                </mxCell>
                <mxCell id="aN2CIeyYc0d-qHaQi9qx-122" value="" style="endArrow=none;html=1;rounded=0;startArrow=ERzeroToMany;startFill=0;entryX=0;entryY=0.5;entryDx=0;entryDy=0;exitX=1;exitY=0.5;exitDx=0;exitDy=0;" parent="1" source="aN2CIeyYc0d-qHaQi9qx-98" target="aN2CIeyYc0d-qHaQi9qx-120" edge="1">
                    <mxGeometry width="50" height="50" relative="1" as="geometry">
                        <mxPoint x="200" y="560" as="sourcePoint"/>
                        <mxPoint x="280" y="590" as="targetPoint"/>
                    </mxGeometry>
                </mxCell>
                <mxCell id="aN2CIeyYc0d-qHaQi9qx-123" value="nome_dir" style="ellipse;whiteSpace=wrap;html=1;" parent="1" vertex="1">
                    <mxGeometry x="70" y="390" width="70" height="50" as="geometry"/>
                </mxCell>
                <mxCell id="aN2CIeyYc0d-qHaQi9qx-124" value="" style="endArrow=none;html=1;rounded=0;exitX=0.5;exitY=1;exitDx=0;exitDy=0;entryX=0.5;entryY=0;entryDx=0;entryDy=0;" parent="1" source="aN2CIeyYc0d-qHaQi9qx-123" target="aN2CIeyYc0d-qHaQi9qx-98" edge="1">
                    <mxGeometry width="50" height="50" relative="1" as="geometry">
                        <mxPoint x="230" y="430" as="sourcePoint"/>
                        <mxPoint x="330" y="430" as="targetPoint"/>
                    </mxGeometry>
                </mxCell>
                <mxCell id="aN2CIeyYc0d-qHaQi9qx-125" value="data_nasc" style="ellipse;whiteSpace=wrap;html=1;" parent="1" vertex="1">
                    <mxGeometry x="149" y="390" width="70" height="50" as="geometry"/>
                </mxCell>
                <mxCell id="aN2CIeyYc0d-qHaQi9qx-126" value="" style="endArrow=none;html=1;rounded=0;exitX=0.5;exitY=1;exitDx=0;exitDy=0;entryX=0.5;entryY=0;entryDx=0;entryDy=0;" parent="1" source="aN2CIeyYc0d-qHaQi9qx-125" target="aN2CIeyYc0d-qHaQi9qx-98" edge="1">
                    <mxGeometry width="50" height="50" relative="1" as="geometry">
                        <mxPoint x="180" y="470" as="sourcePoint"/>
                        <mxPoint x="280" y="470" as="targetPoint"/>
                    </mxGeometry>
                </mxCell>
                <mxCell id="aN2CIeyYc0d-qHaQi9qx-127" value="idade" style="ellipse;whiteSpace=wrap;html=1;dashed=1;" parent="1" vertex="1">
                    <mxGeometry x="200" y="440" width="70" height="50" as="geometry"/>
                </mxCell>
                <mxCell id="aN2CIeyYc0d-qHaQi9qx-128" value="" style="endArrow=none;html=1;rounded=0;entryX=0;entryY=1;entryDx=0;entryDy=0;exitX=0.5;exitY=0;exitDx=0;exitDy=0;" parent="1" source="aN2CIeyYc0d-qHaQi9qx-98" target="aN2CIeyYc0d-qHaQi9qx-127" edge="1">
                    <mxGeometry width="50" height="50" relative="1" as="geometry">
                        <mxPoint x="-60" y="390" as="sourcePoint"/>
                        <mxPoint x="40" y="390" as="targetPoint"/>
                    </mxGeometry>
                </mxCell>
                <mxCell id="aN2CIeyYc0d-qHaQi9qx-129" value="&lt;u&gt;id_dir&lt;/u&gt;" style="ellipse;whiteSpace=wrap;html=1;" parent="1" vertex="1">
                    <mxGeometry x="19" y="430" width="70" height="50" as="geometry"/>
                </mxCell>
                <mxCell id="aN2CIeyYc0d-qHaQi9qx-130" value="" style="endArrow=none;html=1;rounded=0;exitX=1;exitY=0.5;exitDx=0;exitDy=0;entryX=0.5;entryY=0;entryDx=0;entryDy=0;" parent="1" source="aN2CIeyYc0d-qHaQi9qx-129" target="aN2CIeyYc0d-qHaQi9qx-98" edge="1">
                    <mxGeometry width="50" height="50" relative="1" as="geometry">
                        <mxPoint x="10" y="540" as="sourcePoint"/>
                        <mxPoint x="110" y="540" as="targetPoint"/>
                    </mxGeometry>
                </mxCell>
                <mxCell id="aN2CIeyYc0d-qHaQi9qx-131" value="eh_sequencia" style="ellipse;whiteSpace=wrap;html=1;" parent="1" vertex="1">
                    <mxGeometry x="740" y="1220" width="90" height="50" as="geometry"/>
                </mxCell>
                <mxCell id="aN2CIeyYc0d-qHaQi9qx-132" value="" style="endArrow=none;html=1;rounded=0;exitX=0.5;exitY=1;exitDx=0;exitDy=0;entryX=0.5;entryY=0;entryDx=0;entryDy=0;" parent="1" source="aN2CIeyYc0d-qHaQi9qx-34" target="aN2CIeyYc0d-qHaQi9qx-131" edge="1">
                    <mxGeometry width="50" height="50" relative="1" as="geometry">
                        <mxPoint x="840" y="1210" as="sourcePoint"/>
                        <mxPoint x="940.0000000000001" y="1210" as="targetPoint"/>
                    </mxGeometry>
                </mxCell>
                <mxCell id="aN2CIeyYc0d-qHaQi9qx-133" value="classif_etaria" style="ellipse;whiteSpace=wrap;html=1;" parent="1" vertex="1">
                    <mxGeometry x="840" y="1220" width="80" height="50" as="geometry"/>
                </mxCell>
                <mxCell id="aN2CIeyYc0d-qHaQi9qx-134" value="" style="endArrow=none;html=1;rounded=0;exitX=0.5;exitY=1;exitDx=0;exitDy=0;entryX=0.5;entryY=0;entryDx=0;entryDy=0;" parent="1" source="aN2CIeyYc0d-qHaQi9qx-34" target="aN2CIeyYc0d-qHaQi9qx-133" edge="1">
                    <mxGeometry width="50" height="50" relative="1" as="geometry">
                        <mxPoint x="930" y="1150" as="sourcePoint"/>
                        <mxPoint x="1030" y="1150" as="targetPoint"/>
                    </mxGeometry>
                </mxCell>
                <mxCell id="aN2CIeyYc0d-qHaQi9qx-135" value="editora" style="ellipse;whiteSpace=wrap;html=1;" parent="1" vertex="1">
                    <mxGeometry x="950" y="1205" width="70" height="50" as="geometry"/>
                </mxCell>
                <mxCell id="aN2CIeyYc0d-qHaQi9qx-136" value="" style="endArrow=none;html=1;rounded=0;exitX=0.5;exitY=1;exitDx=0;exitDy=0;entryX=0.5;entryY=0;entryDx=0;entryDy=0;" parent="1" source="aN2CIeyYc0d-qHaQi9qx-35" target="aN2CIeyYc0d-qHaQi9qx-135" edge="1">
                    <mxGeometry width="50" height="50" relative="1" as="geometry">
                        <mxPoint x="1100" y="1190" as="sourcePoint"/>
                        <mxPoint x="1200" y="1190" as="targetPoint"/>
                    </mxGeometry>
                </mxCell>
                <mxCell id="aN2CIeyYc0d-qHaQi9qx-137" value="num_edicao" style="ellipse;whiteSpace=wrap;html=1;" parent="1" vertex="1">
                    <mxGeometry x="1010" y="1240" width="80" height="50" as="geometry"/>
                </mxCell>
                <mxCell id="aN2CIeyYc0d-qHaQi9qx-138" value="" style="endArrow=none;html=1;rounded=0;exitX=0.5;exitY=1;exitDx=0;exitDy=0;entryX=0.5;entryY=0;entryDx=0;entryDy=0;" parent="1" source="aN2CIeyYc0d-qHaQi9qx-35" target="aN2CIeyYc0d-qHaQi9qx-137" edge="1">
                    <mxGeometry width="50" height="50" relative="1" as="geometry">
                        <mxPoint x="1060" y="1130" as="sourcePoint"/>
                        <mxPoint x="1160" y="1130" as="targetPoint"/>
                    </mxGeometry>
                </mxCell>
                <mxCell id="aN2CIeyYc0d-qHaQi9qx-139" value="eh_saga" style="ellipse;whiteSpace=wrap;html=1;" parent="1" vertex="1">
                    <mxGeometry x="1050" y="1190" width="70" height="50" as="geometry"/>
                </mxCell>
                <mxCell id="aN2CIeyYc0d-qHaQi9qx-140" value="" style="endArrow=none;html=1;rounded=0;exitX=0.5;exitY=1;exitDx=0;exitDy=0;entryX=0;entryY=0.5;entryDx=0;entryDy=0;" parent="1" source="aN2CIeyYc0d-qHaQi9qx-35" target="aN2CIeyYc0d-qHaQi9qx-139" edge="1">
                    <mxGeometry width="50" height="50" relative="1" as="geometry">
                        <mxPoint x="1050" y="1120" as="sourcePoint"/>
                        <mxPoint x="1150" y="1120" as="targetPoint"/>
                    </mxGeometry>
                </mxCell>
                <mxCell id="aN2CIeyYc0d-qHaQi9qx-141" value="manga" style="rounded=0;whiteSpace=wrap;html=1;" parent="1" vertex="1">
                    <mxGeometry x="1240" y="1110" width="100" height="60" as="geometry"/>
                </mxCell>
                <mxCell id="aN2CIeyYc0d-qHaQi9qx-142" value="" style="endArrow=none;html=1;rounded=0;exitX=0.153;exitY=0.08;exitDx=0;exitDy=0;entryX=0.25;entryY=0;entryDx=0;entryDy=0;exitPerimeter=0;" parent="1" source="aN2CIeyYc0d-qHaQi9qx-31" target="aN2CIeyYc0d-qHaQi9qx-141" edge="1">
                    <mxGeometry width="50" height="50" relative="1" as="geometry">
                        <mxPoint x="970" y="670" as="sourcePoint"/>
                        <mxPoint x="1070" y="670" as="targetPoint"/>
                    </mxGeometry>
                </mxCell>
                <mxCell id="aN2CIeyYc0d-qHaQi9qx-143" value="tem_anime" style="ellipse;whiteSpace=wrap;html=1;" parent="1" vertex="1">
                    <mxGeometry x="1270" y="1200" width="70" height="50" as="geometry"/>
                </mxCell>
                <mxCell id="aN2CIeyYc0d-qHaQi9qx-144" value="" style="endArrow=none;html=1;rounded=0;exitX=0.38;exitY=0.013;exitDx=0;exitDy=0;entryX=0.5;entryY=1;entryDx=0;entryDy=0;exitPerimeter=0;" parent="1" source="aN2CIeyYc0d-qHaQi9qx-143" target="aN2CIeyYc0d-qHaQi9qx-141" edge="1">
                    <mxGeometry width="50" height="50" relative="1" as="geometry">
                        <mxPoint x="1200" y="810" as="sourcePoint"/>
                        <mxPoint x="1300" y="810" as="targetPoint"/>
                    </mxGeometry>
                </mxCell>
                <mxCell id="aN2CIeyYc0d-qHaQi9qx-145" value="nome_estudio" style="ellipse;whiteSpace=wrap;html=1;" parent="1" vertex="1">
                    <mxGeometry x="1310" y="1240" width="90" height="50" as="geometry"/>
                </mxCell>
                <mxCell id="aN2CIeyYc0d-qHaQi9qx-146" value="" style="endArrow=none;html=1;rounded=0;exitX=0.75;exitY=1;exitDx=0;exitDy=0;" parent="1" source="aN2CIeyYc0d-qHaQi9qx-141" target="aN2CIeyYc0d-qHaQi9qx-145" edge="1">
                    <mxGeometry width="50" height="50" relative="1" as="geometry">
                        <mxPoint x="1120" y="890" as="sourcePoint"/>
                        <mxPoint x="1084.9999999999995" y="880" as="targetPoint"/>
                    </mxGeometry>
                </mxCell>
                <mxCell id="aN2CIeyYc0d-qHaQi9qx-147" value="&lt;u&gt;nome_pers&lt;/u&gt;" style="ellipse;whiteSpace=wrap;html=1;strokeWidth=1;" parent="1" vertex="1">
                    <mxGeometry x="400" y="1077.5" width="70" height="50" as="geometry"/>
                </mxCell>
                <mxCell id="aN2CIeyYc0d-qHaQi9qx-148" value="" style="endArrow=none;html=1;rounded=0;exitX=0.5;exitY=1;exitDx=0;exitDy=0;entryX=0.5;entryY=0;entryDx=0;entryDy=0;" parent="1" source="aN2CIeyYc0d-qHaQi9qx-156" target="aN2CIeyYc0d-qHaQi9qx-147" edge="1">
                    <mxGeometry width="50" height="50" relative="1" as="geometry">
                        <mxPoint x="469" y="1032.5" as="sourcePoint"/>
                        <mxPoint x="610" y="1047.5" as="targetPoint"/>
                    </mxGeometry>
                </mxCell>
                <mxCell id="aN2CIeyYc0d-qHaQi9qx-149" value="descricao" style="ellipse;whiteSpace=wrap;html=1;strokeWidth=1;" parent="1" vertex="1">
                    <mxGeometry x="479" y="1077.5" width="70" height="50" as="geometry"/>
                </mxCell>
                <mxCell id="aN2CIeyYc0d-qHaQi9qx-150" value="" style="endArrow=none;html=1;rounded=0;exitX=0.5;exitY=1;exitDx=0;exitDy=0;entryX=0.5;entryY=0;entryDx=0;entryDy=0;" parent="1" source="aN2CIeyYc0d-qHaQi9qx-156" target="aN2CIeyYc0d-qHaQi9qx-149" edge="1">
                    <mxGeometry width="50" height="50" relative="1" as="geometry">
                        <mxPoint x="469" y="1032.5" as="sourcePoint"/>
                        <mxPoint x="660" y="1047.5" as="targetPoint"/>
                    </mxGeometry>
                </mxCell>
                <mxCell id="aN2CIeyYc0d-qHaQi9qx-151" value="&lt;u&gt;numero_ep&lt;/u&gt;" style="ellipse;whiteSpace=wrap;html=1;" parent="1" vertex="1">
                    <mxGeometry x="500" y="1519" width="79" height="50" as="geometry"/>
                </mxCell>
                <mxCell id="aN2CIeyYc0d-qHaQi9qx-152" value="" style="endArrow=none;html=1;rounded=0;exitX=1;exitY=1;exitDx=0;exitDy=0;entryX=0;entryY=0.5;entryDx=0;entryDy=0;" parent="1" source="aN2CIeyYc0d-qHaQi9qx-151" target="aN2CIeyYc0d-qHaQi9qx-79" edge="1">
                    <mxGeometry width="50" height="50" relative="1" as="geometry">
                        <mxPoint x="760" y="1490" as="sourcePoint"/>
                        <mxPoint x="750" y="1560" as="targetPoint"/>
                    </mxGeometry>
                </mxCell>
                <mxCell id="aN2CIeyYc0d-qHaQi9qx-153" value="&lt;u&gt;id_midia&lt;/u&gt;" style="ellipse;whiteSpace=wrap;html=1;strokeWidth=1;" parent="1" vertex="1">
                    <mxGeometry x="767.67" y="454" width="70" height="50" as="geometry"/>
                </mxCell>
                <mxCell id="aN2CIeyYc0d-qHaQi9qx-154" value="" style="endArrow=none;html=1;rounded=0;exitX=0.5;exitY=1;exitDx=0;exitDy=0;entryX=1;entryY=0.5;entryDx=0;entryDy=0;" parent="1" source="aN2CIeyYc0d-qHaQi9qx-153" target="aN2CIeyYc0d-qHaQi9qx-20" edge="1">
                    <mxGeometry width="50" height="50" relative="1" as="geometry">
                        <mxPoint x="930" y="460" as="sourcePoint"/>
                        <mxPoint x="790" y="540" as="targetPoint"/>
                    </mxGeometry>
                </mxCell>
                <mxCell id="aN2CIeyYc0d-qHaQi9qx-155" value="" style="group;strokeWidth=1;" parent="1" vertex="1" connectable="0">
                    <mxGeometry x="419" y="970" width="100" height="60" as="geometry"/>
                </mxCell>
                <mxCell id="aN2CIeyYc0d-qHaQi9qx-156" value="" style="rounded=0;whiteSpace=wrap;html=1;strokeWidth=1;" parent="aN2CIeyYc0d-qHaQi9qx-155" vertex="1">
                    <mxGeometry width="100" height="60" as="geometry"/>
                </mxCell>
                <mxCell id="aN2CIeyYc0d-qHaQi9qx-157" value="personagem" style="rounded=0;whiteSpace=wrap;html=1;strokeWidth=1;" parent="aN2CIeyYc0d-qHaQi9qx-155" vertex="1">
                    <mxGeometry x="5" y="5" width="90" height="50" as="geometry"/>
                </mxCell>
                <mxCell id="aN2CIeyYc0d-qHaQi9qx-158" value="" style="endArrow=none;html=1;rounded=0;startArrow=ERzeroToMany;startFill=0;exitX=1;exitY=0.5;exitDx=0;exitDy=0;entryX=0;entryY=0.5;entryDx=0;entryDy=0;" parent="1" source="aN2CIeyYc0d-qHaQi9qx-84" target="aN2CIeyYc0d-qHaQi9qx-85" edge="1">
                    <mxGeometry width="50" height="50" relative="1" as="geometry">
                        <mxPoint x="91" y="630" as="sourcePoint"/>
                        <mxPoint x="191" y="630" as="targetPoint"/>
                    </mxGeometry>
                </mxCell>
                <mxCell id="aN2CIeyYc0d-qHaQi9qx-161" value="" style="endArrow=none;html=1;rounded=0;startArrow=ERoneToMany;startFill=0;entryX=1;entryY=0.5;entryDx=0;entryDy=0;exitX=0;exitY=0.5;exitDx=0;exitDy=0;" parent="1" source="aN2CIeyYc0d-qHaQi9qx-156" target="aN2CIeyYc0d-qHaQi9qx-96" edge="1">
                    <mxGeometry width="50" height="50" relative="1" as="geometry">
                        <mxPoint x="40" y="949.17" as="sourcePoint"/>
                        <mxPoint x="140" y="949.17" as="targetPoint"/>
                    </mxGeometry>
                </mxCell>
                <mxCell id="g6gGM8oyq0tV6bERqfFD-4" style="edgeStyle=none;rounded=0;orthogonalLoop=1;jettySize=auto;html=1;exitX=0.5;exitY=1;exitDx=0;exitDy=0;entryX=0.5;entryY=0;entryDx=0;entryDy=0;endArrow=none;endFill=0;" parent="1" source="g6gGM8oyq0tV6bERqfFD-1" target="g6gGM8oyq0tV6bERqfFD-3" edge="1">
                    <mxGeometry relative="1" as="geometry"/>
                </mxCell>
                <mxCell id="g6gGM8oyq0tV6bERqfFD-1" value="musica" style="rounded=0;whiteSpace=wrap;html=1;" parent="1" vertex="1">
                    <mxGeometry x="1110" y="1110" width="100" height="60" as="geometry"/>
                </mxCell>
                <mxCell id="g6gGM8oyq0tV6bERqfFD-3" value="origem" style="ellipse;whiteSpace=wrap;html=1;" parent="1" vertex="1">
                    <mxGeometry x="1140" y="1195" width="60" height="40" as="geometry"/>
                </mxCell>
                <mxCell id="g6gGM8oyq0tV6bERqfFD-5" value="premiacao" style="rounded=0;whiteSpace=wrap;html=1;" parent="1" vertex="1">
                    <mxGeometry x="385" y="880" width="100" height="40" as="geometry"/>
                </mxCell>
                <mxCell id="O4nIw_xNwCL6UdKNoLGz-5" style="edgeStyle=none;rounded=0;orthogonalLoop=1;jettySize=auto;html=1;entryX=0.25;entryY=0;entryDx=0;entryDy=0;endArrow=none;endFill=0;" parent="1" source="g6gGM8oyq0tV6bERqfFD-6" target="aN2CIeyYc0d-qHaQi9qx-104" edge="1">
                    <mxGeometry relative="1" as="geometry"/>
                </mxCell>
                <mxCell id="g6gGM8oyq0tV6bERqfFD-6" value="&lt;u&gt;id_prem&lt;/u&gt;" style="ellipse;whiteSpace=wrap;html=1;" parent="1" vertex="1">
                    <mxGeometry x="330" y="670" width="95" height="30" as="geometry"/>
                </mxCell>
                <mxCell id="O4nIw_xNwCL6UdKNoLGz-6" style="edgeStyle=none;rounded=0;orthogonalLoop=1;jettySize=auto;html=1;exitX=0.5;exitY=1;exitDx=0;exitDy=0;entryX=0.5;entryY=0;entryDx=0;entryDy=0;endArrow=none;endFill=0;" parent="1" source="g6gGM8oyq0tV6bERqfFD-7" target="aN2CIeyYc0d-qHaQi9qx-104" edge="1">
                    <mxGeometry relative="1" as="geometry"/>
                </mxCell>
                <mxCell id="g6gGM8oyq0tV6bERqfFD-7" value="nome_prem" style="ellipse;whiteSpace=wrap;html=1;" parent="1" vertex="1">
                    <mxGeometry x="380" y="650" width="95" height="30" as="geometry"/>
                </mxCell>
                <mxCell id="O4nIw_xNwCL6UdKNoLGz-7" style="edgeStyle=none;rounded=0;orthogonalLoop=1;jettySize=auto;html=1;exitX=0;exitY=1;exitDx=0;exitDy=0;entryX=0.75;entryY=0;entryDx=0;entryDy=0;endArrow=none;endFill=0;" parent="1" source="g6gGM8oyq0tV6bERqfFD-8" target="aN2CIeyYc0d-qHaQi9qx-104" edge="1">
                    <mxGeometry relative="1" as="geometry"/>
                </mxCell>
                <mxCell id="g6gGM8oyq0tV6bERqfFD-8" value="data_prem" style="ellipse;whiteSpace=wrap;html=1;" parent="1" vertex="1">
                    <mxGeometry x="435" y="680" width="95" height="30" as="geometry"/>
                </mxCell>
                <mxCell id="O4nIw_xNwCL6UdKNoLGz-1" value="" style="group" parent="1" vertex="1" connectable="0">
                    <mxGeometry x="259" y="821.25" width="100" height="60" as="geometry"/>
                </mxCell>
                <mxCell id="O4nIw_xNwCL6UdKNoLGz-2" value="" style="rhombus;whiteSpace=wrap;html=1;" parent="O4nIw_xNwCL6UdKNoLGz-1" vertex="1">
                    <mxGeometry width="100" height="60" as="geometry"/>
                </mxCell>
                <mxCell id="O4nIw_xNwCL6UdKNoLGz-3" value="possui" style="rhombus;whiteSpace=wrap;html=1;" parent="O4nIw_xNwCL6UdKNoLGz-1" vertex="1">
                    <mxGeometry x="8.339999999999975" y="5" width="83.33" height="50" as="geometry"/>
                </mxCell>
                <mxCell id="O4nIw_xNwCL6UdKNoLGz-8" value="" style="endArrow=none;html=1;rounded=0;startArrow=ERoneToMany;startFill=0;exitX=0.25;exitY=1;exitDx=0;exitDy=0;entryX=1;entryY=0;entryDx=0;entryDy=0;" parent="1" source="aN2CIeyYc0d-qHaQi9qx-104" target="O4nIw_xNwCL6UdKNoLGz-2" edge="1">
                    <mxGeometry width="50" height="50" relative="1" as="geometry">
                        <mxPoint x="330" y="810" as="sourcePoint"/>
                        <mxPoint x="360" y="850" as="targetPoint"/>
                    </mxGeometry>
                </mxCell>
                <mxCell id="O4nIw_xNwCL6UdKNoLGz-9" value="" style="endArrow=none;html=1;rounded=0;startArrow=ERmandOne;startFill=0;exitX=0;exitY=0.5;exitDx=0;exitDy=0;entryX=0.5;entryY=1;entryDx=0;entryDy=0;" parent="1" source="g6gGM8oyq0tV6bERqfFD-5" target="O4nIw_xNwCL6UdKNoLGz-2" edge="1">
                    <mxGeometry width="50" height="50" relative="1" as="geometry">
                        <mxPoint x="330" y="810" as="sourcePoint"/>
                        <mxPoint x="430" y="810" as="targetPoint"/>
                    </mxGeometry>
                </mxCell>
            </root>
        </mxGraphModel>
    </diagram>
    <diagram id="j-jieJKIwqjFkSTTMDe6" name="mr">
        <mxGraphModel dx="1974" dy="1437" grid="1" gridSize="10" guides="1" tooltips="1" connect="1" arrows="1" fold="1" page="0" pageScale="1" pageWidth="827" pageHeight="1169" math="0" shadow="0">
            <root>
                <mxCell id="0"/>
                <mxCell id="1" parent="0"/>
                <mxCell id="5v9euWalOSnjDp-jNHdY-23" style="edgeStyle=orthogonalEdgeStyle;rounded=0;orthogonalLoop=1;jettySize=auto;html=1;exitX=0.25;exitY=1;exitDx=0;exitDy=0;entryX=0;entryY=0.5;entryDx=0;entryDy=0;startArrow=classic;startFill=1;endArrow=none;endFill=0;fillColor=none;" parent="1" source="MAxw8JceQmOi3U0D1pXm-29" target="5v9euWalOSnjDp-jNHdY-2" edge="1">
                    <mxGeometry relative="1" as="geometry"/>
                </mxCell>
                <mxCell id="P0SjYmlm0OOzNPO-IwvO-14" style="edgeStyle=orthogonalEdgeStyle;rounded=0;orthogonalLoop=1;jettySize=auto;html=1;exitX=0.25;exitY=0;exitDx=0;exitDy=0;entryX=1;entryY=0.5;entryDx=0;entryDy=0;startArrow=classic;startFill=1;endArrow=none;endFill=0;fillColor=none;" parent="1" source="MAxw8JceQmOi3U0D1pXm-29" target="P0SjYmlm0OOzNPO-IwvO-11" edge="1">
                    <mxGeometry relative="1" as="geometry"/>
                </mxCell>
                <mxCell id="P0SjYmlm0OOzNPO-IwvO-15" style="edgeStyle=orthogonalEdgeStyle;rounded=0;orthogonalLoop=1;jettySize=auto;html=1;exitX=0.5;exitY=0;exitDx=0;exitDy=0;entryX=1;entryY=0.5;entryDx=0;entryDy=0;startArrow=classic;startFill=1;endArrow=none;endFill=0;fillColor=none;" parent="1" source="MAxw8JceQmOi3U0D1pXm-29" target="P0SjYmlm0OOzNPO-IwvO-2" edge="1">
                    <mxGeometry relative="1" as="geometry"/>
                </mxCell>
                <mxCell id="MAxw8JceQmOi3U0D1pXm-29" value="usuario" style="shape=table;startSize=30;container=1;collapsible=1;childLayout=tableLayout;fixedRows=1;rowLines=0;fontStyle=1;align=center;resizeLast=1;fillColor=none;" parent="1" vertex="1">
                    <mxGeometry x="-150" y="-300" width="180" height="130" as="geometry"/>
                </mxCell>
                <mxCell id="MAxw8JceQmOi3U0D1pXm-33" value="" style="shape=tableRow;horizontal=0;startSize=0;swimlaneHead=0;swimlaneBody=0;fillColor=none;collapsible=0;dropTarget=0;points=[[0,0.5],[1,0.5]];portConstraint=eastwest;top=0;left=0;right=0;bottom=1;" parent="MAxw8JceQmOi3U0D1pXm-29" vertex="1">
                    <mxGeometry y="30" width="180" height="30" as="geometry"/>
                </mxCell>
                <mxCell id="MAxw8JceQmOi3U0D1pXm-34" value="PK" style="shape=partialRectangle;connectable=0;fillColor=none;top=0;left=0;bottom=0;right=0;fontStyle=1;overflow=hidden;" parent="MAxw8JceQmOi3U0D1pXm-33" vertex="1">
                    <mxGeometry width="60" height="30" as="geometry">
                        <mxRectangle width="60" height="30" as="alternateBounds"/>
                    </mxGeometry>
                </mxCell>
                <mxCell id="MAxw8JceQmOi3U0D1pXm-35" value="nome_usuario" style="shape=partialRectangle;connectable=0;fillColor=none;top=0;left=0;bottom=0;right=0;align=left;spacingLeft=6;fontStyle=5;overflow=hidden;" parent="MAxw8JceQmOi3U0D1pXm-33" vertex="1">
                    <mxGeometry x="60" width="120" height="30" as="geometry">
                        <mxRectangle width="120" height="30" as="alternateBounds"/>
                    </mxGeometry>
                </mxCell>
                <mxCell id="MAxw8JceQmOi3U0D1pXm-36" value="" style="shape=tableRow;horizontal=0;startSize=0;swimlaneHead=0;swimlaneBody=0;fillColor=none;collapsible=0;dropTarget=0;points=[[0,0.5],[1,0.5]];portConstraint=eastwest;top=0;left=0;right=0;bottom=0;" parent="MAxw8JceQmOi3U0D1pXm-29" vertex="1">
                    <mxGeometry y="60" width="180" height="30" as="geometry"/>
                </mxCell>
                <mxCell id="MAxw8JceQmOi3U0D1pXm-37" value="" style="shape=partialRectangle;connectable=0;fillColor=none;top=0;left=0;bottom=0;right=0;editable=1;overflow=hidden;" parent="MAxw8JceQmOi3U0D1pXm-36" vertex="1">
                    <mxGeometry width="60" height="30" as="geometry">
                        <mxRectangle width="60" height="30" as="alternateBounds"/>
                    </mxGeometry>
                </mxCell>
                <mxCell id="MAxw8JceQmOi3U0D1pXm-38" value="email" style="shape=partialRectangle;connectable=0;fillColor=none;top=0;left=0;bottom=0;right=0;align=left;spacingLeft=6;overflow=hidden;" parent="MAxw8JceQmOi3U0D1pXm-36" vertex="1">
                    <mxGeometry x="60" width="120" height="30" as="geometry">
                        <mxRectangle width="120" height="30" as="alternateBounds"/>
                    </mxGeometry>
                </mxCell>
                <mxCell id="MAxw8JceQmOi3U0D1pXm-39" value="" style="shape=tableRow;horizontal=0;startSize=0;swimlaneHead=0;swimlaneBody=0;fillColor=none;collapsible=0;dropTarget=0;points=[[0,0.5],[1,0.5]];portConstraint=eastwest;top=0;left=0;right=0;bottom=0;" parent="MAxw8JceQmOi3U0D1pXm-29" vertex="1">
                    <mxGeometry y="90" width="180" height="30" as="geometry"/>
                </mxCell>
                <mxCell id="MAxw8JceQmOi3U0D1pXm-40" value="" style="shape=partialRectangle;connectable=0;fillColor=none;top=0;left=0;bottom=0;right=0;editable=1;overflow=hidden;" parent="MAxw8JceQmOi3U0D1pXm-39" vertex="1">
                    <mxGeometry width="60" height="30" as="geometry">
                        <mxRectangle width="60" height="30" as="alternateBounds"/>
                    </mxGeometry>
                </mxCell>
                <mxCell id="MAxw8JceQmOi3U0D1pXm-41" value="senha" style="shape=partialRectangle;connectable=0;fillColor=none;top=0;left=0;bottom=0;right=0;align=left;spacingLeft=6;overflow=hidden;" parent="MAxw8JceQmOi3U0D1pXm-39" vertex="1">
                    <mxGeometry x="60" width="120" height="30" as="geometry">
                        <mxRectangle width="120" height="30" as="alternateBounds"/>
                    </mxGeometry>
                </mxCell>
                <mxCell id="icnb_eeS4xduSv06CVTZ-1" value="diretor" style="shape=table;startSize=30;container=1;collapsible=1;childLayout=tableLayout;fixedRows=1;rowLines=0;fontStyle=1;align=center;resizeLast=1;fillColor=none;" parent="1" vertex="1">
                    <mxGeometry x="-560" y="-210" width="180" height="130" as="geometry"/>
                </mxCell>
                <mxCell id="icnb_eeS4xduSv06CVTZ-2" value="" style="shape=tableRow;horizontal=0;startSize=0;swimlaneHead=0;swimlaneBody=0;fillColor=none;collapsible=0;dropTarget=0;points=[[0,0.5],[1,0.5]];portConstraint=eastwest;top=0;left=0;right=0;bottom=1;" parent="icnb_eeS4xduSv06CVTZ-1" vertex="1">
                    <mxGeometry y="30" width="180" height="30" as="geometry"/>
                </mxCell>
                <mxCell id="icnb_eeS4xduSv06CVTZ-3" value="PK" style="shape=partialRectangle;connectable=0;fillColor=none;top=0;left=0;bottom=0;right=0;fontStyle=1;overflow=hidden;" parent="icnb_eeS4xduSv06CVTZ-2" vertex="1">
                    <mxGeometry width="60" height="30" as="geometry">
                        <mxRectangle width="60" height="30" as="alternateBounds"/>
                    </mxGeometry>
                </mxCell>
                <mxCell id="icnb_eeS4xduSv06CVTZ-4" value="id_dir" style="shape=partialRectangle;connectable=0;fillColor=none;top=0;left=0;bottom=0;right=0;align=left;spacingLeft=6;fontStyle=5;overflow=hidden;" parent="icnb_eeS4xduSv06CVTZ-2" vertex="1">
                    <mxGeometry x="60" width="120" height="30" as="geometry">
                        <mxRectangle width="120" height="30" as="alternateBounds"/>
                    </mxGeometry>
                </mxCell>
                <mxCell id="icnb_eeS4xduSv06CVTZ-5" value="" style="shape=tableRow;horizontal=0;startSize=0;swimlaneHead=0;swimlaneBody=0;fillColor=none;collapsible=0;dropTarget=0;points=[[0,0.5],[1,0.5]];portConstraint=eastwest;top=0;left=0;right=0;bottom=0;" parent="icnb_eeS4xduSv06CVTZ-1" vertex="1">
                    <mxGeometry y="60" width="180" height="30" as="geometry"/>
                </mxCell>
                <mxCell id="icnb_eeS4xduSv06CVTZ-6" value="" style="shape=partialRectangle;connectable=0;fillColor=none;top=0;left=0;bottom=0;right=0;editable=1;overflow=hidden;" parent="icnb_eeS4xduSv06CVTZ-5" vertex="1">
                    <mxGeometry width="60" height="30" as="geometry">
                        <mxRectangle width="60" height="30" as="alternateBounds"/>
                    </mxGeometry>
                </mxCell>
                <mxCell id="icnb_eeS4xduSv06CVTZ-7" value="nome_dir" style="shape=partialRectangle;connectable=0;fillColor=none;top=0;left=0;bottom=0;right=0;align=left;spacingLeft=6;overflow=hidden;" parent="icnb_eeS4xduSv06CVTZ-5" vertex="1">
                    <mxGeometry x="60" width="120" height="30" as="geometry">
                        <mxRectangle width="120" height="30" as="alternateBounds"/>
                    </mxGeometry>
                </mxCell>
                <mxCell id="icnb_eeS4xduSv06CVTZ-8" value="" style="shape=tableRow;horizontal=0;startSize=0;swimlaneHead=0;swimlaneBody=0;fillColor=none;collapsible=0;dropTarget=0;points=[[0,0.5],[1,0.5]];portConstraint=eastwest;top=0;left=0;right=0;bottom=0;" parent="icnb_eeS4xduSv06CVTZ-1" vertex="1">
                    <mxGeometry y="90" width="180" height="30" as="geometry"/>
                </mxCell>
                <mxCell id="icnb_eeS4xduSv06CVTZ-9" value="" style="shape=partialRectangle;connectable=0;fillColor=none;top=0;left=0;bottom=0;right=0;editable=1;overflow=hidden;" parent="icnb_eeS4xduSv06CVTZ-8" vertex="1">
                    <mxGeometry width="60" height="30" as="geometry">
                        <mxRectangle width="60" height="30" as="alternateBounds"/>
                    </mxGeometry>
                </mxCell>
                <mxCell id="icnb_eeS4xduSv06CVTZ-10" value="data_nasc" style="shape=partialRectangle;connectable=0;fillColor=none;top=0;left=0;bottom=0;right=0;align=left;spacingLeft=6;overflow=hidden;" parent="icnb_eeS4xduSv06CVTZ-8" vertex="1">
                    <mxGeometry x="60" width="120" height="30" as="geometry">
                        <mxRectangle width="120" height="30" as="alternateBounds"/>
                    </mxGeometry>
                </mxCell>
                <mxCell id="WHFdX1zFAuZr_nL35hY2-14" style="edgeStyle=orthogonalEdgeStyle;rounded=0;orthogonalLoop=1;jettySize=auto;html=1;exitX=0.75;exitY=0;exitDx=0;exitDy=0;entryX=0;entryY=0.5;entryDx=0;entryDy=0;startArrow=classic;startFill=1;endArrow=none;endFill=0;fillColor=none;" parent="1" source="zsWrf0b4NACeGE5gNBOO-1" target="WHFdX1zFAuZr_nL35hY2-2" edge="1">
                    <mxGeometry relative="1" as="geometry"/>
                </mxCell>
                <mxCell id="zsWrf0b4NACeGE5gNBOO-1" value="ator" style="shape=table;startSize=30;container=1;collapsible=1;childLayout=tableLayout;fixedRows=1;rowLines=0;fontStyle=1;align=center;resizeLast=1;fillColor=none;" parent="1" vertex="1">
                    <mxGeometry x="-730" y="200" width="180" height="130" as="geometry"/>
                </mxCell>
                <mxCell id="zsWrf0b4NACeGE5gNBOO-2" value="" style="shape=tableRow;horizontal=0;startSize=0;swimlaneHead=0;swimlaneBody=0;fillColor=none;collapsible=0;dropTarget=0;points=[[0,0.5],[1,0.5]];portConstraint=eastwest;top=0;left=0;right=0;bottom=1;" parent="zsWrf0b4NACeGE5gNBOO-1" vertex="1">
                    <mxGeometry y="30" width="180" height="30" as="geometry"/>
                </mxCell>
                <mxCell id="zsWrf0b4NACeGE5gNBOO-3" value="PK" style="shape=partialRectangle;connectable=0;fillColor=none;top=0;left=0;bottom=0;right=0;fontStyle=1;overflow=hidden;" parent="zsWrf0b4NACeGE5gNBOO-2" vertex="1">
                    <mxGeometry width="60" height="30" as="geometry">
                        <mxRectangle width="60" height="30" as="alternateBounds"/>
                    </mxGeometry>
                </mxCell>
                <mxCell id="zsWrf0b4NACeGE5gNBOO-4" value="id_ator" style="shape=partialRectangle;connectable=0;fillColor=none;top=0;left=0;bottom=0;right=0;align=left;spacingLeft=6;fontStyle=5;overflow=hidden;" parent="zsWrf0b4NACeGE5gNBOO-2" vertex="1">
                    <mxGeometry x="60" width="120" height="30" as="geometry">
                        <mxRectangle width="120" height="30" as="alternateBounds"/>
                    </mxGeometry>
                </mxCell>
                <mxCell id="zsWrf0b4NACeGE5gNBOO-5" value="" style="shape=tableRow;horizontal=0;startSize=0;swimlaneHead=0;swimlaneBody=0;fillColor=none;collapsible=0;dropTarget=0;points=[[0,0.5],[1,0.5]];portConstraint=eastwest;top=0;left=0;right=0;bottom=0;" parent="zsWrf0b4NACeGE5gNBOO-1" vertex="1">
                    <mxGeometry y="60" width="180" height="30" as="geometry"/>
                </mxCell>
                <mxCell id="zsWrf0b4NACeGE5gNBOO-6" value="" style="shape=partialRectangle;connectable=0;fillColor=none;top=0;left=0;bottom=0;right=0;editable=1;overflow=hidden;" parent="zsWrf0b4NACeGE5gNBOO-5" vertex="1">
                    <mxGeometry width="60" height="30" as="geometry">
                        <mxRectangle width="60" height="30" as="alternateBounds"/>
                    </mxGeometry>
                </mxCell>
                <mxCell id="zsWrf0b4NACeGE5gNBOO-7" value="nome_ator" style="shape=partialRectangle;connectable=0;fillColor=none;top=0;left=0;bottom=0;right=0;align=left;spacingLeft=6;overflow=hidden;" parent="zsWrf0b4NACeGE5gNBOO-5" vertex="1">
                    <mxGeometry x="60" width="120" height="30" as="geometry">
                        <mxRectangle width="120" height="30" as="alternateBounds"/>
                    </mxGeometry>
                </mxCell>
                <mxCell id="zsWrf0b4NACeGE5gNBOO-8" value="" style="shape=tableRow;horizontal=0;startSize=0;swimlaneHead=0;swimlaneBody=0;fillColor=none;collapsible=0;dropTarget=0;points=[[0,0.5],[1,0.5]];portConstraint=eastwest;top=0;left=0;right=0;bottom=0;" parent="zsWrf0b4NACeGE5gNBOO-1" vertex="1">
                    <mxGeometry y="90" width="180" height="30" as="geometry"/>
                </mxCell>
                <mxCell id="zsWrf0b4NACeGE5gNBOO-9" value="" style="shape=partialRectangle;connectable=0;fillColor=none;top=0;left=0;bottom=0;right=0;editable=1;overflow=hidden;" parent="zsWrf0b4NACeGE5gNBOO-8" vertex="1">
                    <mxGeometry width="60" height="30" as="geometry">
                        <mxRectangle width="60" height="30" as="alternateBounds"/>
                    </mxGeometry>
                </mxCell>
                <mxCell id="zsWrf0b4NACeGE5gNBOO-10" value="data_nasc" style="shape=partialRectangle;connectable=0;fillColor=none;top=0;left=0;bottom=0;right=0;align=left;spacingLeft=6;overflow=hidden;" parent="zsWrf0b4NACeGE5gNBOO-8" vertex="1">
                    <mxGeometry x="60" width="120" height="30" as="geometry">
                        <mxRectangle width="120" height="30" as="alternateBounds"/>
                    </mxGeometry>
                </mxCell>
                <mxCell id="rxkfjyC-rU_dp3_MY_md-5" style="edgeStyle=orthogonalEdgeStyle;rounded=0;orthogonalLoop=1;jettySize=auto;html=1;exitX=1;exitY=0.5;exitDx=0;exitDy=0;entryX=1;entryY=0.5;entryDx=0;entryDy=0;startArrow=classic;startFill=1;endArrow=none;endFill=0;fillColor=none;" parent="1" source="USOs8W3Zsqg8Qt5Viovd-1" target="PEJJQN-HhevAdJgKn_HA-3" edge="1">
                    <mxGeometry relative="1" as="geometry">
                        <Array as="points">
                            <mxPoint x="380" y="245"/>
                            <mxPoint x="380" y="625"/>
                        </Array>
                    </mxGeometry>
                </mxCell>
                <mxCell id="7enD2b8rOCR-RBse6SjV-19" style="edgeStyle=orthogonalEdgeStyle;rounded=0;orthogonalLoop=1;jettySize=auto;html=1;exitX=0.75;exitY=0;exitDx=0;exitDy=0;entryX=0;entryY=0.5;entryDx=0;entryDy=0;startArrow=classic;startFill=1;endArrow=none;endFill=0;fillColor=none;" parent="1" source="gJl9PJvljryJPRqh59uf-1" target="7enD2b8rOCR-RBse6SjV-14" edge="1">
                    <mxGeometry relative="1" as="geometry">
                        <Array as="points">
                            <mxPoint x="285" y="50"/>
                            <mxPoint x="420" y="50"/>
                            <mxPoint x="420" y="-195"/>
                        </Array>
                    </mxGeometry>
                </mxCell>
                <mxCell id="5v9euWalOSnjDp-jNHdY-24" style="edgeStyle=orthogonalEdgeStyle;rounded=0;orthogonalLoop=1;jettySize=auto;html=1;exitX=0.25;exitY=0;exitDx=0;exitDy=0;entryX=1;entryY=0.5;entryDx=0;entryDy=0;startArrow=classic;startFill=1;endArrow=none;endFill=0;fillColor=none;" parent="1" source="gJl9PJvljryJPRqh59uf-1" target="5v9euWalOSnjDp-jNHdY-17" edge="1">
                    <mxGeometry relative="1" as="geometry"/>
                </mxCell>
                <mxCell id="jnYWs89yA4B4rrRi1Y7h-22" style="edgeStyle=orthogonalEdgeStyle;rounded=0;orthogonalLoop=1;jettySize=auto;html=1;exitX=0.112;exitY=0.007;exitDx=0;exitDy=0;entryX=1;entryY=0.5;entryDx=0;entryDy=0;startArrow=classic;startFill=1;endArrow=none;endFill=0;exitPerimeter=0;fillColor=none;" parent="1" source="gJl9PJvljryJPRqh59uf-1" target="jnYWs89yA4B4rrRi1Y7h-17" edge="1">
                    <mxGeometry relative="1" as="geometry"/>
                </mxCell>
                <mxCell id="WHFdX1zFAuZr_nL35hY2-16" style="edgeStyle=orthogonalEdgeStyle;rounded=0;orthogonalLoop=1;jettySize=auto;html=1;exitX=0.002;exitY=0.151;exitDx=0;exitDy=0;entryX=1;entryY=0.5;entryDx=0;entryDy=0;startArrow=classic;startFill=1;endArrow=none;endFill=0;exitPerimeter=0;fillColor=none;" parent="1" source="gJl9PJvljryJPRqh59uf-1" target="WHFdX1zFAuZr_nL35hY2-11" edge="1">
                    <mxGeometry relative="1" as="geometry"/>
                </mxCell>
                <mxCell id="gJl9PJvljryJPRqh59uf-1" value="midia" style="shape=table;startSize=30;container=1;collapsible=1;childLayout=tableLayout;fixedRows=1;rowLines=0;fontStyle=1;align=center;resizeLast=1;swimlaneLine=1;fillColor=none;" parent="1" vertex="1">
                    <mxGeometry x="150" y="110" width="180" height="160" as="geometry"/>
                </mxCell>
                <mxCell id="gJl9PJvljryJPRqh59uf-2" value="" style="shape=tableRow;horizontal=0;startSize=0;swimlaneHead=0;swimlaneBody=0;fillColor=none;collapsible=0;dropTarget=0;points=[[0,0.5],[1,0.5]];portConstraint=eastwest;top=0;left=0;right=0;bottom=1;swimlaneLine=0;strokeWidth=1;" parent="gJl9PJvljryJPRqh59uf-1" vertex="1">
                    <mxGeometry y="30" width="180" height="30" as="geometry"/>
                </mxCell>
                <mxCell id="gJl9PJvljryJPRqh59uf-3" value="PK" style="shape=partialRectangle;connectable=0;fillColor=none;top=0;left=0;bottom=0;right=0;fontStyle=1;overflow=hidden;" parent="gJl9PJvljryJPRqh59uf-2" vertex="1">
                    <mxGeometry width="60" height="30" as="geometry">
                        <mxRectangle width="60" height="30" as="alternateBounds"/>
                    </mxGeometry>
                </mxCell>
                <mxCell id="gJl9PJvljryJPRqh59uf-4" value="id_midia" style="shape=partialRectangle;connectable=0;fillColor=none;top=0;left=0;bottom=0;right=0;align=left;spacingLeft=6;fontStyle=5;overflow=hidden;" parent="gJl9PJvljryJPRqh59uf-2" vertex="1">
                    <mxGeometry x="60" width="120" height="30" as="geometry">
                        <mxRectangle width="120" height="30" as="alternateBounds"/>
                    </mxGeometry>
                </mxCell>
                <mxCell id="gJl9PJvljryJPRqh59uf-5" value="" style="shape=tableRow;horizontal=0;startSize=0;swimlaneHead=0;swimlaneBody=0;fillColor=none;collapsible=0;dropTarget=0;points=[[0,0.5],[1,0.5]];portConstraint=eastwest;top=0;left=0;right=0;bottom=0;" parent="gJl9PJvljryJPRqh59uf-1" vertex="1">
                    <mxGeometry y="60" width="180" height="30" as="geometry"/>
                </mxCell>
                <mxCell id="gJl9PJvljryJPRqh59uf-6" value="" style="shape=partialRectangle;connectable=0;fillColor=none;top=0;left=0;bottom=0;right=0;editable=1;overflow=hidden;" parent="gJl9PJvljryJPRqh59uf-5" vertex="1">
                    <mxGeometry width="60" height="30" as="geometry">
                        <mxRectangle width="60" height="30" as="alternateBounds"/>
                    </mxGeometry>
                </mxCell>
                <mxCell id="gJl9PJvljryJPRqh59uf-7" value="nome_midia" style="shape=partialRectangle;connectable=0;fillColor=none;top=0;left=0;bottom=0;right=0;align=left;spacingLeft=6;overflow=hidden;" parent="gJl9PJvljryJPRqh59uf-5" vertex="1">
                    <mxGeometry x="60" width="120" height="30" as="geometry">
                        <mxRectangle width="120" height="30" as="alternateBounds"/>
                    </mxGeometry>
                </mxCell>
                <mxCell id="IFs8lGpOd2_MFRx54395-1" style="shape=tableRow;horizontal=0;startSize=0;swimlaneHead=0;swimlaneBody=0;fillColor=none;collapsible=0;dropTarget=0;points=[[0,0.5],[1,0.5]];portConstraint=eastwest;top=0;left=0;right=0;bottom=0;" parent="gJl9PJvljryJPRqh59uf-1" vertex="1">
                    <mxGeometry y="90" width="180" height="30" as="geometry"/>
                </mxCell>
                <mxCell id="IFs8lGpOd2_MFRx54395-2" style="shape=partialRectangle;connectable=0;fillColor=none;top=0;left=0;bottom=0;right=0;editable=1;overflow=hidden;" parent="IFs8lGpOd2_MFRx54395-1" vertex="1">
                    <mxGeometry width="60" height="30" as="geometry">
                        <mxRectangle width="60" height="30" as="alternateBounds"/>
                    </mxGeometry>
                </mxCell>
                <mxCell id="IFs8lGpOd2_MFRx54395-3" value="data_lanc" style="shape=partialRectangle;connectable=0;fillColor=none;top=0;left=0;bottom=0;right=0;align=left;spacingLeft=6;overflow=hidden;" parent="IFs8lGpOd2_MFRx54395-1" vertex="1">
                    <mxGeometry x="60" width="120" height="30" as="geometry">
                        <mxRectangle width="120" height="30" as="alternateBounds"/>
                    </mxGeometry>
                </mxCell>
                <mxCell id="USOs8W3Zsqg8Qt5Viovd-1" style="shape=tableRow;horizontal=0;startSize=0;swimlaneHead=0;swimlaneBody=0;fillColor=none;collapsible=0;dropTarget=0;points=[[0,0.5],[1,0.5]];portConstraint=eastwest;top=0;left=0;right=0;bottom=0;" parent="gJl9PJvljryJPRqh59uf-1" vertex="1">
                    <mxGeometry y="120" width="180" height="30" as="geometry"/>
                </mxCell>
                <mxCell id="USOs8W3Zsqg8Qt5Viovd-2" style="shape=partialRectangle;connectable=0;fillColor=none;top=0;left=0;bottom=0;right=0;editable=1;overflow=hidden;" parent="USOs8W3Zsqg8Qt5Viovd-1" vertex="1">
                    <mxGeometry width="60" height="30" as="geometry">
                        <mxRectangle width="60" height="30" as="alternateBounds"/>
                    </mxGeometry>
                </mxCell>
                <mxCell id="USOs8W3Zsqg8Qt5Viovd-3" value="resumo" style="shape=partialRectangle;connectable=0;fillColor=none;top=0;left=0;bottom=0;right=0;align=left;spacingLeft=6;overflow=hidden;" parent="USOs8W3Zsqg8Qt5Viovd-1" vertex="1">
                    <mxGeometry x="60" width="120" height="30" as="geometry">
                        <mxRectangle width="120" height="30" as="alternateBounds"/>
                    </mxGeometry>
                </mxCell>
                <mxCell id="_7JAo4edvZqFhmaJR1P4-1" value="premiacao" style="shape=table;startSize=30;container=1;collapsible=1;childLayout=tableLayout;fixedRows=1;rowLines=0;fontStyle=1;align=center;resizeLast=1;fillColor=none;" parent="1" vertex="1">
                    <mxGeometry x="-230" y="330" width="180" height="150" as="geometry"/>
                </mxCell>
                <mxCell id="7sStP9-GTbV_s4abkRtO-1" style="shape=tableRow;horizontal=0;startSize=0;swimlaneHead=0;swimlaneBody=0;fillColor=none;collapsible=0;dropTarget=0;points=[[0,0.5],[1,0.5]];portConstraint=eastwest;top=0;left=0;right=0;bottom=1;strokeWidth=0;" parent="_7JAo4edvZqFhmaJR1P4-1" vertex="1">
                    <mxGeometry y="30" width="180" height="30" as="geometry"/>
                </mxCell>
                <mxCell id="7sStP9-GTbV_s4abkRtO-2" value="PK, FK" style="shape=partialRectangle;connectable=0;fillColor=none;top=0;left=0;bottom=0;right=0;fontStyle=1;overflow=hidden;" parent="7sStP9-GTbV_s4abkRtO-1" vertex="1">
                    <mxGeometry width="60" height="30" as="geometry">
                        <mxRectangle width="60" height="30" as="alternateBounds"/>
                    </mxGeometry>
                </mxCell>
                <mxCell id="7sStP9-GTbV_s4abkRtO-3" value="id_prem" style="shape=partialRectangle;connectable=0;fillColor=none;top=0;left=0;bottom=0;right=0;align=left;spacingLeft=6;fontStyle=5;overflow=hidden;" parent="7sStP9-GTbV_s4abkRtO-1" vertex="1">
                    <mxGeometry x="60" width="120" height="30" as="geometry">
                        <mxRectangle width="120" height="30" as="alternateBounds"/>
                    </mxGeometry>
                </mxCell>
                <mxCell id="ejLQeXhG5e7kexLqbXbK-4" style="shape=tableRow;horizontal=0;startSize=0;swimlaneHead=0;swimlaneBody=0;fillColor=none;collapsible=0;dropTarget=0;points=[[0,0.5],[1,0.5]];portConstraint=eastwest;top=0;left=0;right=0;bottom=1;strokeWidth=0;" parent="_7JAo4edvZqFhmaJR1P4-1" vertex="1">
                    <mxGeometry y="60" width="180" height="30" as="geometry"/>
                </mxCell>
                <mxCell id="ejLQeXhG5e7kexLqbXbK-5" value="PK, FK" style="shape=partialRectangle;connectable=0;fillColor=none;top=0;left=0;bottom=0;right=0;fontStyle=1;overflow=hidden;" parent="ejLQeXhG5e7kexLqbXbK-4" vertex="1">
                    <mxGeometry width="60" height="30" as="geometry">
                        <mxRectangle width="60" height="30" as="alternateBounds"/>
                    </mxGeometry>
                </mxCell>
                <mxCell id="ejLQeXhG5e7kexLqbXbK-6" value="id_midia" style="shape=partialRectangle;connectable=0;fillColor=none;top=0;left=0;bottom=0;right=0;align=left;spacingLeft=6;fontStyle=5;overflow=hidden;strokeWidth=0;" parent="ejLQeXhG5e7kexLqbXbK-4" vertex="1">
                    <mxGeometry x="60" width="120" height="30" as="geometry">
                        <mxRectangle width="120" height="30" as="alternateBounds"/>
                    </mxGeometry>
                </mxCell>
                <mxCell id="n6YF2CirP_3VGDOpMMBt-1" style="shape=tableRow;horizontal=0;startSize=0;swimlaneHead=0;swimlaneBody=0;fillColor=none;collapsible=0;dropTarget=0;points=[[0,0.5],[1,0.5]];portConstraint=eastwest;top=0;left=0;right=0;bottom=1;strokeWidth=1;" parent="_7JAo4edvZqFhmaJR1P4-1" vertex="1">
                    <mxGeometry y="90" width="180" height="30" as="geometry"/>
                </mxCell>
                <mxCell id="n6YF2CirP_3VGDOpMMBt-2" value="PK, FK" style="shape=partialRectangle;connectable=0;fillColor=none;top=0;left=0;bottom=0;right=0;fontStyle=1;overflow=hidden;" parent="n6YF2CirP_3VGDOpMMBt-1" vertex="1">
                    <mxGeometry width="60" height="30" as="geometry">
                        <mxRectangle width="60" height="30" as="alternateBounds"/>
                    </mxGeometry>
                </mxCell>
                <mxCell id="n6YF2CirP_3VGDOpMMBt-3" value="id_ator" style="shape=partialRectangle;connectable=0;fillColor=none;top=0;left=0;bottom=0;right=0;align=left;spacingLeft=6;fontStyle=5;overflow=hidden;strokeWidth=0;" parent="n6YF2CirP_3VGDOpMMBt-1" vertex="1">
                    <mxGeometry x="60" width="120" height="30" as="geometry">
                        <mxRectangle width="120" height="30" as="alternateBounds"/>
                    </mxGeometry>
                </mxCell>
                <mxCell id="_7JAo4edvZqFhmaJR1P4-5" value="" style="shape=tableRow;horizontal=0;startSize=0;swimlaneHead=0;swimlaneBody=0;fillColor=none;collapsible=0;dropTarget=0;points=[[0,0.5],[1,0.5]];portConstraint=eastwest;top=0;left=0;right=0;bottom=0;" parent="_7JAo4edvZqFhmaJR1P4-1" vertex="1">
                    <mxGeometry y="120" width="180" height="30" as="geometry"/>
                </mxCell>
                <mxCell id="_7JAo4edvZqFhmaJR1P4-6" value="" style="shape=partialRectangle;connectable=0;fillColor=none;top=0;left=0;bottom=0;right=0;editable=1;overflow=hidden;" parent="_7JAo4edvZqFhmaJR1P4-5" vertex="1">
                    <mxGeometry width="60" height="30" as="geometry">
                        <mxRectangle width="60" height="30" as="alternateBounds"/>
                    </mxGeometry>
                </mxCell>
                <mxCell id="_7JAo4edvZqFhmaJR1P4-7" value="categoria" style="shape=partialRectangle;connectable=0;fillColor=none;top=0;left=0;bottom=0;right=0;align=left;spacingLeft=6;overflow=hidden;" parent="_7JAo4edvZqFhmaJR1P4-5" vertex="1">
                    <mxGeometry x="60" width="120" height="30" as="geometry">
                        <mxRectangle width="120" height="30" as="alternateBounds"/>
                    </mxGeometry>
                </mxCell>
                <mxCell id="fgKy9wdFDKuftwmvtnKk-1" value="personagem" style="shape=table;startSize=30;container=1;collapsible=1;childLayout=tableLayout;fixedRows=1;rowLines=0;fontStyle=1;align=center;resizeLast=1;fillColor=none;" parent="1" vertex="1">
                    <mxGeometry x="-740" y="450" width="180" height="160" as="geometry"/>
                </mxCell>
                <mxCell id="W-FAMrGlUxoU8F5mrEqa-1" style="shape=tableRow;horizontal=0;startSize=0;swimlaneHead=0;swimlaneBody=0;fillColor=none;collapsible=0;dropTarget=0;points=[[0,0.5],[1,0.5]];portConstraint=eastwest;top=0;left=0;right=0;bottom=1;strokeWidth=0;" parent="fgKy9wdFDKuftwmvtnKk-1" vertex="1">
                    <mxGeometry y="30" width="180" height="30" as="geometry"/>
                </mxCell>
                <mxCell id="W-FAMrGlUxoU8F5mrEqa-2" value="PK" style="shape=partialRectangle;connectable=0;fillColor=none;top=0;left=0;bottom=0;right=0;fontStyle=1;overflow=hidden;" parent="W-FAMrGlUxoU8F5mrEqa-1" vertex="1">
                    <mxGeometry width="60" height="30" as="geometry">
                        <mxRectangle width="60" height="30" as="alternateBounds"/>
                    </mxGeometry>
                </mxCell>
                <mxCell id="W-FAMrGlUxoU8F5mrEqa-3" value="nome_pers" style="shape=partialRectangle;connectable=0;fillColor=none;top=0;left=0;bottom=0;right=0;align=left;spacingLeft=6;fontStyle=5;overflow=hidden;" parent="W-FAMrGlUxoU8F5mrEqa-1" vertex="1">
                    <mxGeometry x="60" width="120" height="30" as="geometry">
                        <mxRectangle width="120" height="30" as="alternateBounds"/>
                    </mxGeometry>
                </mxCell>
                <mxCell id="rpWOZU6NJl-nbFFFRQVn-1" style="shape=tableRow;horizontal=0;startSize=0;swimlaneHead=0;swimlaneBody=0;fillColor=none;collapsible=0;dropTarget=0;points=[[0,0.5],[1,0.5]];portConstraint=eastwest;top=0;left=0;right=0;bottom=1;strokeWidth=0;" parent="fgKy9wdFDKuftwmvtnKk-1" vertex="1">
                    <mxGeometry y="60" width="180" height="30" as="geometry"/>
                </mxCell>
                <mxCell id="rpWOZU6NJl-nbFFFRQVn-2" value="PK, FK" style="shape=partialRectangle;connectable=0;fillColor=none;top=0;left=0;bottom=0;right=0;fontStyle=1;overflow=hidden;" parent="rpWOZU6NJl-nbFFFRQVn-1" vertex="1">
                    <mxGeometry width="60" height="30" as="geometry">
                        <mxRectangle width="60" height="30" as="alternateBounds"/>
                    </mxGeometry>
                </mxCell>
                <mxCell id="rpWOZU6NJl-nbFFFRQVn-3" value="id_midia" style="shape=partialRectangle;connectable=0;fillColor=none;top=0;left=0;bottom=0;right=0;align=left;spacingLeft=6;fontStyle=5;overflow=hidden;" parent="rpWOZU6NJl-nbFFFRQVn-1" vertex="1">
                    <mxGeometry x="60" width="120" height="30" as="geometry">
                        <mxRectangle width="120" height="30" as="alternateBounds"/>
                    </mxGeometry>
                </mxCell>
                <mxCell id="olchY2nkoEW7F7KIqQNg-1" style="shape=tableRow;horizontal=0;startSize=0;swimlaneHead=0;swimlaneBody=0;fillColor=none;collapsible=0;dropTarget=0;points=[[0,0.5],[1,0.5]];portConstraint=eastwest;top=0;left=0;right=0;bottom=1;" parent="fgKy9wdFDKuftwmvtnKk-1" vertex="1">
                    <mxGeometry y="90" width="180" height="30" as="geometry"/>
                </mxCell>
                <mxCell id="olchY2nkoEW7F7KIqQNg-2" value="FK" style="shape=partialRectangle;connectable=0;fillColor=none;top=0;left=0;bottom=0;right=0;fontStyle=1;overflow=hidden;" parent="olchY2nkoEW7F7KIqQNg-1" vertex="1">
                    <mxGeometry width="60" height="30" as="geometry">
                        <mxRectangle width="60" height="30" as="alternateBounds"/>
                    </mxGeometry>
                </mxCell>
                <mxCell id="olchY2nkoEW7F7KIqQNg-3" value="id_autor" style="shape=partialRectangle;connectable=0;fillColor=none;top=0;left=0;bottom=0;right=0;align=left;spacingLeft=6;fontStyle=5;overflow=hidden;" parent="olchY2nkoEW7F7KIqQNg-1" vertex="1">
                    <mxGeometry x="60" width="120" height="30" as="geometry">
                        <mxRectangle width="120" height="30" as="alternateBounds"/>
                    </mxGeometry>
                </mxCell>
                <mxCell id="fgKy9wdFDKuftwmvtnKk-8" value="" style="shape=tableRow;horizontal=0;startSize=0;swimlaneHead=0;swimlaneBody=0;fillColor=none;collapsible=0;dropTarget=0;points=[[0,0.5],[1,0.5]];portConstraint=eastwest;top=0;left=0;right=0;bottom=0;" parent="fgKy9wdFDKuftwmvtnKk-1" vertex="1">
                    <mxGeometry y="120" width="180" height="30" as="geometry"/>
                </mxCell>
                <mxCell id="fgKy9wdFDKuftwmvtnKk-9" value="" style="shape=partialRectangle;connectable=0;fillColor=none;top=0;left=0;bottom=0;right=0;editable=1;overflow=hidden;" parent="fgKy9wdFDKuftwmvtnKk-8" vertex="1">
                    <mxGeometry width="60" height="30" as="geometry">
                        <mxRectangle width="60" height="30" as="alternateBounds"/>
                    </mxGeometry>
                </mxCell>
                <mxCell id="fgKy9wdFDKuftwmvtnKk-10" value="descricao" style="shape=partialRectangle;connectable=0;fillColor=none;top=0;left=0;bottom=0;right=0;align=left;spacingLeft=6;overflow=hidden;" parent="fgKy9wdFDKuftwmvtnKk-8" vertex="1">
                    <mxGeometry x="60" width="120" height="30" as="geometry">
                        <mxRectangle width="120" height="30" as="alternateBounds"/>
                    </mxGeometry>
                </mxCell>
                <mxCell id="PEJJQN-HhevAdJgKn_HA-2" value="serie" style="shape=table;startSize=30;container=1;collapsible=1;childLayout=tableLayout;fixedRows=1;rowLines=0;fontStyle=1;align=center;resizeLast=1;fillColor=none;" parent="1" vertex="1">
                    <mxGeometry x="150" y="580" width="180" height="100" as="geometry"/>
                </mxCell>
                <mxCell id="PEJJQN-HhevAdJgKn_HA-3" value="" style="shape=tableRow;horizontal=0;startSize=0;swimlaneHead=0;swimlaneBody=0;fillColor=none;collapsible=0;dropTarget=0;points=[[0,0.5],[1,0.5]];portConstraint=eastwest;top=0;left=0;right=0;bottom=1;" parent="PEJJQN-HhevAdJgKn_HA-2" vertex="1">
                    <mxGeometry y="30" width="180" height="30" as="geometry"/>
                </mxCell>
                <mxCell id="PEJJQN-HhevAdJgKn_HA-4" value="PK, FK" style="shape=partialRectangle;connectable=0;fillColor=none;top=0;left=0;bottom=0;right=0;fontStyle=1;overflow=hidden;" parent="PEJJQN-HhevAdJgKn_HA-3" vertex="1">
                    <mxGeometry width="60" height="30" as="geometry">
                        <mxRectangle width="60" height="30" as="alternateBounds"/>
                    </mxGeometry>
                </mxCell>
                <mxCell id="PEJJQN-HhevAdJgKn_HA-5" value="id_midia" style="shape=partialRectangle;connectable=0;fillColor=none;top=0;left=0;bottom=0;right=0;align=left;spacingLeft=6;fontStyle=5;overflow=hidden;" parent="PEJJQN-HhevAdJgKn_HA-3" vertex="1">
                    <mxGeometry x="60" width="120" height="30" as="geometry">
                        <mxRectangle width="120" height="30" as="alternateBounds"/>
                    </mxGeometry>
                </mxCell>
                <mxCell id="PEJJQN-HhevAdJgKn_HA-6" value="" style="shape=tableRow;horizontal=0;startSize=0;swimlaneHead=0;swimlaneBody=0;fillColor=none;collapsible=0;dropTarget=0;points=[[0,0.5],[1,0.5]];portConstraint=eastwest;top=0;left=0;right=0;bottom=0;" parent="PEJJQN-HhevAdJgKn_HA-2" vertex="1">
                    <mxGeometry y="60" width="180" height="30" as="geometry"/>
                </mxCell>
                <mxCell id="PEJJQN-HhevAdJgKn_HA-7" value="" style="shape=partialRectangle;connectable=0;fillColor=none;top=0;left=0;bottom=0;right=0;editable=1;overflow=hidden;" parent="PEJJQN-HhevAdJgKn_HA-6" vertex="1">
                    <mxGeometry width="60" height="30" as="geometry">
                        <mxRectangle width="60" height="30" as="alternateBounds"/>
                    </mxGeometry>
                </mxCell>
                <mxCell id="PEJJQN-HhevAdJgKn_HA-8" value="data_final" style="shape=partialRectangle;connectable=0;fillColor=none;top=0;left=0;bottom=0;right=0;align=left;spacingLeft=6;overflow=hidden;" parent="PEJJQN-HhevAdJgKn_HA-6" vertex="1">
                    <mxGeometry x="60" width="120" height="30" as="geometry">
                        <mxRectangle width="120" height="30" as="alternateBounds"/>
                    </mxGeometry>
                </mxCell>
                <mxCell id="MMWVPXAWwjkmqY6SfI9b-1" value="filme" style="shape=table;startSize=30;container=1;collapsible=1;childLayout=tableLayout;fixedRows=1;rowLines=0;fontStyle=1;align=center;resizeLast=1;fillColor=none;" parent="1" vertex="1">
                    <mxGeometry x="150" y="700" width="180" height="130" as="geometry"/>
                </mxCell>
                <mxCell id="MMWVPXAWwjkmqY6SfI9b-2" value="" style="shape=tableRow;horizontal=0;startSize=0;swimlaneHead=0;swimlaneBody=0;fillColor=none;collapsible=0;dropTarget=0;points=[[0,0.5],[1,0.5]];portConstraint=eastwest;top=0;left=0;right=0;bottom=1;" parent="MMWVPXAWwjkmqY6SfI9b-1" vertex="1">
                    <mxGeometry y="30" width="180" height="30" as="geometry"/>
                </mxCell>
                <mxCell id="MMWVPXAWwjkmqY6SfI9b-3" value="PK, FK" style="shape=partialRectangle;connectable=0;fillColor=none;top=0;left=0;bottom=0;right=0;fontStyle=1;overflow=hidden;" parent="MMWVPXAWwjkmqY6SfI9b-2" vertex="1">
                    <mxGeometry width="60" height="30" as="geometry">
                        <mxRectangle width="60" height="30" as="alternateBounds"/>
                    </mxGeometry>
                </mxCell>
                <mxCell id="MMWVPXAWwjkmqY6SfI9b-4" value="id_midia" style="shape=partialRectangle;connectable=0;fillColor=none;top=0;left=0;bottom=0;right=0;align=left;spacingLeft=6;fontStyle=5;overflow=hidden;" parent="MMWVPXAWwjkmqY6SfI9b-2" vertex="1">
                    <mxGeometry x="60" width="120" height="30" as="geometry">
                        <mxRectangle width="120" height="30" as="alternateBounds"/>
                    </mxGeometry>
                </mxCell>
                <mxCell id="MMWVPXAWwjkmqY6SfI9b-5" value="" style="shape=tableRow;horizontal=0;startSize=0;swimlaneHead=0;swimlaneBody=0;fillColor=none;collapsible=0;dropTarget=0;points=[[0,0.5],[1,0.5]];portConstraint=eastwest;top=0;left=0;right=0;bottom=0;" parent="MMWVPXAWwjkmqY6SfI9b-1" vertex="1">
                    <mxGeometry y="60" width="180" height="30" as="geometry"/>
                </mxCell>
                <mxCell id="MMWVPXAWwjkmqY6SfI9b-6" value="" style="shape=partialRectangle;connectable=0;fillColor=none;top=0;left=0;bottom=0;right=0;editable=1;overflow=hidden;" parent="MMWVPXAWwjkmqY6SfI9b-5" vertex="1">
                    <mxGeometry width="60" height="30" as="geometry">
                        <mxRectangle width="60" height="30" as="alternateBounds"/>
                    </mxGeometry>
                </mxCell>
                <mxCell id="MMWVPXAWwjkmqY6SfI9b-7" value="eh_sequencia" style="shape=partialRectangle;connectable=0;fillColor=none;top=0;left=0;bottom=0;right=0;align=left;spacingLeft=6;overflow=hidden;" parent="MMWVPXAWwjkmqY6SfI9b-5" vertex="1">
                    <mxGeometry x="60" width="120" height="30" as="geometry">
                        <mxRectangle width="120" height="30" as="alternateBounds"/>
                    </mxGeometry>
                </mxCell>
                <mxCell id="ImsbBJCR67syXHQrbh-b-1" style="shape=tableRow;horizontal=0;startSize=0;swimlaneHead=0;swimlaneBody=0;fillColor=none;collapsible=0;dropTarget=0;points=[[0,0.5],[1,0.5]];portConstraint=eastwest;top=0;left=0;right=0;bottom=0;" parent="MMWVPXAWwjkmqY6SfI9b-1" vertex="1">
                    <mxGeometry y="90" width="180" height="30" as="geometry"/>
                </mxCell>
                <mxCell id="ImsbBJCR67syXHQrbh-b-2" style="shape=partialRectangle;connectable=0;fillColor=none;top=0;left=0;bottom=0;right=0;editable=1;overflow=hidden;" parent="ImsbBJCR67syXHQrbh-b-1" vertex="1">
                    <mxGeometry width="60" height="30" as="geometry">
                        <mxRectangle width="60" height="30" as="alternateBounds"/>
                    </mxGeometry>
                </mxCell>
                <mxCell id="ImsbBJCR67syXHQrbh-b-3" value="classif_etaria" style="shape=partialRectangle;connectable=0;fillColor=none;top=0;left=0;bottom=0;right=0;align=left;spacingLeft=6;overflow=hidden;" parent="ImsbBJCR67syXHQrbh-b-1" vertex="1">
                    <mxGeometry x="60" width="120" height="30" as="geometry">
                        <mxRectangle width="120" height="30" as="alternateBounds"/>
                    </mxGeometry>
                </mxCell>
                <mxCell id="MMWVPXAWwjkmqY6SfI9b-8" value="livro" style="shape=table;startSize=30;container=1;collapsible=1;childLayout=tableLayout;fixedRows=1;rowLines=0;fontStyle=1;align=center;resizeLast=1;fillColor=none;" parent="1" vertex="1">
                    <mxGeometry x="150" y="850" width="180" height="160" as="geometry"/>
                </mxCell>
                <mxCell id="MMWVPXAWwjkmqY6SfI9b-9" value="" style="shape=tableRow;horizontal=0;startSize=0;swimlaneHead=0;swimlaneBody=0;fillColor=none;collapsible=0;dropTarget=0;points=[[0,0.5],[1,0.5]];portConstraint=eastwest;top=0;left=0;right=0;bottom=1;" parent="MMWVPXAWwjkmqY6SfI9b-8" vertex="1">
                    <mxGeometry y="30" width="180" height="30" as="geometry"/>
                </mxCell>
                <mxCell id="MMWVPXAWwjkmqY6SfI9b-10" value="PK, FK" style="shape=partialRectangle;connectable=0;fillColor=none;top=0;left=0;bottom=0;right=0;fontStyle=1;overflow=hidden;" parent="MMWVPXAWwjkmqY6SfI9b-9" vertex="1">
                    <mxGeometry width="60" height="30" as="geometry">
                        <mxRectangle width="60" height="30" as="alternateBounds"/>
                    </mxGeometry>
                </mxCell>
                <mxCell id="MMWVPXAWwjkmqY6SfI9b-11" value="id_midia" style="shape=partialRectangle;connectable=0;fillColor=none;top=0;left=0;bottom=0;right=0;align=left;spacingLeft=6;fontStyle=5;overflow=hidden;" parent="MMWVPXAWwjkmqY6SfI9b-9" vertex="1">
                    <mxGeometry x="60" width="120" height="30" as="geometry">
                        <mxRectangle width="120" height="30" as="alternateBounds"/>
                    </mxGeometry>
                </mxCell>
                <mxCell id="MMWVPXAWwjkmqY6SfI9b-12" value="" style="shape=tableRow;horizontal=0;startSize=0;swimlaneHead=0;swimlaneBody=0;fillColor=none;collapsible=0;dropTarget=0;points=[[0,0.5],[1,0.5]];portConstraint=eastwest;top=0;left=0;right=0;bottom=0;" parent="MMWVPXAWwjkmqY6SfI9b-8" vertex="1">
                    <mxGeometry y="60" width="180" height="30" as="geometry"/>
                </mxCell>
                <mxCell id="MMWVPXAWwjkmqY6SfI9b-13" value="" style="shape=partialRectangle;connectable=0;fillColor=none;top=0;left=0;bottom=0;right=0;editable=1;overflow=hidden;" parent="MMWVPXAWwjkmqY6SfI9b-12" vertex="1">
                    <mxGeometry width="60" height="30" as="geometry">
                        <mxRectangle width="60" height="30" as="alternateBounds"/>
                    </mxGeometry>
                </mxCell>
                <mxCell id="MMWVPXAWwjkmqY6SfI9b-14" value="editora" style="shape=partialRectangle;connectable=0;fillColor=none;top=0;left=0;bottom=0;right=0;align=left;spacingLeft=6;overflow=hidden;" parent="MMWVPXAWwjkmqY6SfI9b-12" vertex="1">
                    <mxGeometry x="60" width="120" height="30" as="geometry">
                        <mxRectangle width="120" height="30" as="alternateBounds"/>
                    </mxGeometry>
                </mxCell>
                <mxCell id="vW5Czh_-S_s9-5S2KWWf-1" style="shape=tableRow;horizontal=0;startSize=0;swimlaneHead=0;swimlaneBody=0;fillColor=none;collapsible=0;dropTarget=0;points=[[0,0.5],[1,0.5]];portConstraint=eastwest;top=0;left=0;right=0;bottom=0;" parent="MMWVPXAWwjkmqY6SfI9b-8" vertex="1">
                    <mxGeometry y="90" width="180" height="30" as="geometry"/>
                </mxCell>
                <mxCell id="vW5Czh_-S_s9-5S2KWWf-2" style="shape=partialRectangle;connectable=0;fillColor=none;top=0;left=0;bottom=0;right=0;editable=1;overflow=hidden;" parent="vW5Czh_-S_s9-5S2KWWf-1" vertex="1">
                    <mxGeometry width="60" height="30" as="geometry">
                        <mxRectangle width="60" height="30" as="alternateBounds"/>
                    </mxGeometry>
                </mxCell>
                <mxCell id="vW5Czh_-S_s9-5S2KWWf-3" value="num_edicao" style="shape=partialRectangle;connectable=0;fillColor=none;top=0;left=0;bottom=0;right=0;align=left;spacingLeft=6;overflow=hidden;" parent="vW5Czh_-S_s9-5S2KWWf-1" vertex="1">
                    <mxGeometry x="60" width="120" height="30" as="geometry">
                        <mxRectangle width="120" height="30" as="alternateBounds"/>
                    </mxGeometry>
                </mxCell>
                <mxCell id="vW5Czh_-S_s9-5S2KWWf-4" style="shape=tableRow;horizontal=0;startSize=0;swimlaneHead=0;swimlaneBody=0;fillColor=none;collapsible=0;dropTarget=0;points=[[0,0.5],[1,0.5]];portConstraint=eastwest;top=0;left=0;right=0;bottom=0;" parent="MMWVPXAWwjkmqY6SfI9b-8" vertex="1">
                    <mxGeometry y="120" width="180" height="30" as="geometry"/>
                </mxCell>
                <mxCell id="vW5Czh_-S_s9-5S2KWWf-5" style="shape=partialRectangle;connectable=0;fillColor=none;top=0;left=0;bottom=0;right=0;editable=1;overflow=hidden;" parent="vW5Czh_-S_s9-5S2KWWf-4" vertex="1">
                    <mxGeometry width="60" height="30" as="geometry">
                        <mxRectangle width="60" height="30" as="alternateBounds"/>
                    </mxGeometry>
                </mxCell>
                <mxCell id="vW5Czh_-S_s9-5S2KWWf-6" value="eh_saga" style="shape=partialRectangle;connectable=0;fillColor=none;top=0;left=0;bottom=0;right=0;align=left;spacingLeft=6;overflow=hidden;" parent="vW5Czh_-S_s9-5S2KWWf-4" vertex="1">
                    <mxGeometry x="60" width="120" height="30" as="geometry">
                        <mxRectangle width="120" height="30" as="alternateBounds"/>
                    </mxGeometry>
                </mxCell>
                <mxCell id="MMWVPXAWwjkmqY6SfI9b-15" value="manga" style="shape=table;startSize=30;container=1;collapsible=1;childLayout=tableLayout;fixedRows=1;rowLines=0;fontStyle=1;align=center;resizeLast=1;fillColor=none;" parent="1" vertex="1">
                    <mxGeometry x="150" y="1030" width="180" height="130" as="geometry"/>
                </mxCell>
                <mxCell id="MMWVPXAWwjkmqY6SfI9b-16" value="" style="shape=tableRow;horizontal=0;startSize=0;swimlaneHead=0;swimlaneBody=0;fillColor=none;collapsible=0;dropTarget=0;points=[[0,0.5],[1,0.5]];portConstraint=eastwest;top=0;left=0;right=0;bottom=1;" parent="MMWVPXAWwjkmqY6SfI9b-15" vertex="1">
                    <mxGeometry y="30" width="180" height="30" as="geometry"/>
                </mxCell>
                <mxCell id="MMWVPXAWwjkmqY6SfI9b-17" value="PK, FK" style="shape=partialRectangle;connectable=0;fillColor=none;top=0;left=0;bottom=0;right=0;fontStyle=1;overflow=hidden;" parent="MMWVPXAWwjkmqY6SfI9b-16" vertex="1">
                    <mxGeometry width="60" height="30" as="geometry">
                        <mxRectangle width="60" height="30" as="alternateBounds"/>
                    </mxGeometry>
                </mxCell>
                <mxCell id="MMWVPXAWwjkmqY6SfI9b-18" value="id_midia" style="shape=partialRectangle;connectable=0;fillColor=none;top=0;left=0;bottom=0;right=0;align=left;spacingLeft=6;fontStyle=5;overflow=hidden;" parent="MMWVPXAWwjkmqY6SfI9b-16" vertex="1">
                    <mxGeometry x="60" width="120" height="30" as="geometry">
                        <mxRectangle width="120" height="30" as="alternateBounds"/>
                    </mxGeometry>
                </mxCell>
                <mxCell id="MMWVPXAWwjkmqY6SfI9b-19" value="" style="shape=tableRow;horizontal=0;startSize=0;swimlaneHead=0;swimlaneBody=0;fillColor=none;collapsible=0;dropTarget=0;points=[[0,0.5],[1,0.5]];portConstraint=eastwest;top=0;left=0;right=0;bottom=0;" parent="MMWVPXAWwjkmqY6SfI9b-15" vertex="1">
                    <mxGeometry y="60" width="180" height="30" as="geometry"/>
                </mxCell>
                <mxCell id="MMWVPXAWwjkmqY6SfI9b-20" value="" style="shape=partialRectangle;connectable=0;fillColor=none;top=0;left=0;bottom=0;right=0;editable=1;overflow=hidden;" parent="MMWVPXAWwjkmqY6SfI9b-19" vertex="1">
                    <mxGeometry width="60" height="30" as="geometry">
                        <mxRectangle width="60" height="30" as="alternateBounds"/>
                    </mxGeometry>
                </mxCell>
                <mxCell id="MMWVPXAWwjkmqY6SfI9b-21" value="tem_anime" style="shape=partialRectangle;connectable=0;fillColor=none;top=0;left=0;bottom=0;right=0;align=left;spacingLeft=6;overflow=hidden;" parent="MMWVPXAWwjkmqY6SfI9b-19" vertex="1">
                    <mxGeometry x="60" width="120" height="30" as="geometry">
                        <mxRectangle width="120" height="30" as="alternateBounds"/>
                    </mxGeometry>
                </mxCell>
                <mxCell id="x4B_dgWzAVfkFwN8B-ae-1" style="shape=tableRow;horizontal=0;startSize=0;swimlaneHead=0;swimlaneBody=0;fillColor=none;collapsible=0;dropTarget=0;points=[[0,0.5],[1,0.5]];portConstraint=eastwest;top=0;left=0;right=0;bottom=0;" parent="MMWVPXAWwjkmqY6SfI9b-15" vertex="1">
                    <mxGeometry y="90" width="180" height="30" as="geometry"/>
                </mxCell>
                <mxCell id="x4B_dgWzAVfkFwN8B-ae-2" style="shape=partialRectangle;connectable=0;fillColor=none;top=0;left=0;bottom=0;right=0;editable=1;overflow=hidden;" parent="x4B_dgWzAVfkFwN8B-ae-1" vertex="1">
                    <mxGeometry width="60" height="30" as="geometry">
                        <mxRectangle width="60" height="30" as="alternateBounds"/>
                    </mxGeometry>
                </mxCell>
                <mxCell id="x4B_dgWzAVfkFwN8B-ae-3" value="nome_estudio" style="shape=partialRectangle;connectable=0;fillColor=none;top=0;left=0;bottom=0;right=0;align=left;spacingLeft=6;overflow=hidden;" parent="x4B_dgWzAVfkFwN8B-ae-1" vertex="1">
                    <mxGeometry x="60" width="120" height="30" as="geometry">
                        <mxRectangle width="120" height="30" as="alternateBounds"/>
                    </mxGeometry>
                </mxCell>
                <mxCell id="bLIWcwhfD9qcq8pM-FlF-1" value="lista" style="shape=table;startSize=30;container=1;collapsible=1;childLayout=tableLayout;fixedRows=1;rowLines=0;fontStyle=1;align=center;resizeLast=1;fillColor=none;" parent="1" vertex="1">
                    <mxGeometry x="170" y="-300" width="180" height="130" as="geometry"/>
                </mxCell>
                <mxCell id="bLIWcwhfD9qcq8pM-FlF-2" value="" style="shape=tableRow;horizontal=0;startSize=0;swimlaneHead=0;swimlaneBody=0;fillColor=none;collapsible=0;dropTarget=0;points=[[0,0.5],[1,0.5]];portConstraint=eastwest;top=0;left=0;right=0;bottom=1;strokeWidth=0;" parent="bLIWcwhfD9qcq8pM-FlF-1" vertex="1">
                    <mxGeometry y="30" width="180" height="30" as="geometry"/>
                </mxCell>
                <mxCell id="bLIWcwhfD9qcq8pM-FlF-3" value="PK" style="shape=partialRectangle;connectable=0;fillColor=none;top=0;left=0;bottom=0;right=0;fontStyle=1;overflow=hidden;" parent="bLIWcwhfD9qcq8pM-FlF-2" vertex="1">
                    <mxGeometry width="60" height="30" as="geometry">
                        <mxRectangle width="60" height="30" as="alternateBounds"/>
                    </mxGeometry>
                </mxCell>
                <mxCell id="bLIWcwhfD9qcq8pM-FlF-4" value="nome_lista" style="shape=partialRectangle;connectable=0;fillColor=none;top=0;left=0;bottom=0;right=0;align=left;spacingLeft=6;fontStyle=5;overflow=hidden;strokeWidth=0;" parent="bLIWcwhfD9qcq8pM-FlF-2" vertex="1">
                    <mxGeometry x="60" width="120" height="30" as="geometry">
                        <mxRectangle width="120" height="30" as="alternateBounds"/>
                    </mxGeometry>
                </mxCell>
                <mxCell id="DTHCasOrFm0AEnzNELyj-1" style="shape=tableRow;horizontal=0;startSize=0;swimlaneHead=0;swimlaneBody=0;fillColor=none;collapsible=0;dropTarget=0;points=[[0,0.5],[1,0.5]];portConstraint=eastwest;top=0;left=0;right=0;bottom=1;" parent="bLIWcwhfD9qcq8pM-FlF-1" vertex="1">
                    <mxGeometry y="60" width="180" height="30" as="geometry"/>
                </mxCell>
                <mxCell id="DTHCasOrFm0AEnzNELyj-2" value="PK, FK" style="shape=partialRectangle;connectable=0;fillColor=none;top=0;left=0;bottom=0;right=0;fontStyle=1;overflow=hidden;" parent="DTHCasOrFm0AEnzNELyj-1" vertex="1">
                    <mxGeometry width="60" height="30" as="geometry">
                        <mxRectangle width="60" height="30" as="alternateBounds"/>
                    </mxGeometry>
                </mxCell>
                <mxCell id="DTHCasOrFm0AEnzNELyj-3" value="nome_usuario" style="shape=partialRectangle;connectable=0;fillColor=none;top=0;left=0;bottom=0;right=0;align=left;spacingLeft=6;fontStyle=5;overflow=hidden;" parent="DTHCasOrFm0AEnzNELyj-1" vertex="1">
                    <mxGeometry x="60" width="120" height="30" as="geometry">
                        <mxRectangle width="120" height="30" as="alternateBounds"/>
                    </mxGeometry>
                </mxCell>
                <mxCell id="bLIWcwhfD9qcq8pM-FlF-5" value="" style="shape=tableRow;horizontal=0;startSize=0;swimlaneHead=0;swimlaneBody=0;fillColor=none;collapsible=0;dropTarget=0;points=[[0,0.5],[1,0.5]];portConstraint=eastwest;top=0;left=0;right=0;bottom=0;" parent="bLIWcwhfD9qcq8pM-FlF-1" vertex="1">
                    <mxGeometry y="90" width="180" height="30" as="geometry"/>
                </mxCell>
                <mxCell id="bLIWcwhfD9qcq8pM-FlF-6" value="" style="shape=partialRectangle;connectable=0;fillColor=none;top=0;left=0;bottom=0;right=0;editable=1;overflow=hidden;" parent="bLIWcwhfD9qcq8pM-FlF-5" vertex="1">
                    <mxGeometry width="60" height="30" as="geometry">
                        <mxRectangle width="60" height="30" as="alternateBounds"/>
                    </mxGeometry>
                </mxCell>
                <mxCell id="bLIWcwhfD9qcq8pM-FlF-7" value="eh_favorita" style="shape=partialRectangle;connectable=0;fillColor=none;top=0;left=0;bottom=0;right=0;align=left;spacingLeft=6;overflow=hidden;" parent="bLIWcwhfD9qcq8pM-FlF-5" vertex="1">
                    <mxGeometry x="60" width="120" height="30" as="geometry">
                        <mxRectangle width="120" height="30" as="alternateBounds"/>
                    </mxGeometry>
                </mxCell>
                <mxCell id="DTHCasOrFm0AEnzNELyj-4" style="edgeStyle=orthogonalEdgeStyle;rounded=0;orthogonalLoop=1;jettySize=auto;html=1;exitX=0;exitY=0.5;exitDx=0;exitDy=0;entryX=1;entryY=0.5;entryDx=0;entryDy=0;startArrow=none;startFill=0;fillColor=none;" parent="1" source="DTHCasOrFm0AEnzNELyj-1" target="MAxw8JceQmOi3U0D1pXm-33" edge="1">
                    <mxGeometry relative="1" as="geometry"/>
                </mxCell>
                <mxCell id="Scsf48JfyTtr4cscszrT-1" value="temporada" style="shape=table;startSize=30;container=1;collapsible=1;childLayout=tableLayout;fixedRows=1;rowLines=0;fontStyle=1;align=center;resizeLast=1;fillColor=none;" parent="1" vertex="1">
                    <mxGeometry x="-140" y="580" width="180" height="100" as="geometry"/>
                </mxCell>
                <mxCell id="Scsf48JfyTtr4cscszrT-2" value="" style="shape=tableRow;horizontal=0;startSize=0;swimlaneHead=0;swimlaneBody=0;fillColor=none;collapsible=0;dropTarget=0;points=[[0,0.5],[1,0.5]];portConstraint=eastwest;top=0;left=0;right=0;bottom=1;strokeWidth=0;" parent="Scsf48JfyTtr4cscszrT-1" vertex="1">
                    <mxGeometry y="30" width="180" height="30" as="geometry"/>
                </mxCell>
                <mxCell id="Scsf48JfyTtr4cscszrT-3" value="PK" style="shape=partialRectangle;connectable=0;fillColor=none;top=0;left=0;bottom=0;right=0;fontStyle=1;overflow=hidden;" parent="Scsf48JfyTtr4cscszrT-2" vertex="1">
                    <mxGeometry width="60" height="30" as="geometry">
                        <mxRectangle width="60" height="30" as="alternateBounds"/>
                    </mxGeometry>
                </mxCell>
                <mxCell id="Scsf48JfyTtr4cscszrT-4" value="numero_temp" style="shape=partialRectangle;connectable=0;fillColor=none;top=0;left=0;bottom=0;right=0;align=left;spacingLeft=6;fontStyle=5;overflow=hidden;strokeWidth=0;" parent="Scsf48JfyTtr4cscszrT-2" vertex="1">
                    <mxGeometry x="60" width="120" height="30" as="geometry">
                        <mxRectangle width="120" height="30" as="alternateBounds"/>
                    </mxGeometry>
                </mxCell>
                <mxCell id="Scsf48JfyTtr4cscszrT-5" style="shape=tableRow;horizontal=0;startSize=0;swimlaneHead=0;swimlaneBody=0;fillColor=none;collapsible=0;dropTarget=0;points=[[0,0.5],[1,0.5]];portConstraint=eastwest;top=0;left=0;right=0;bottom=1;strokeWidth=0;" parent="Scsf48JfyTtr4cscszrT-1" vertex="1">
                    <mxGeometry y="60" width="180" height="30" as="geometry"/>
                </mxCell>
                <mxCell id="Scsf48JfyTtr4cscszrT-6" value="PK, FK" style="shape=partialRectangle;connectable=0;fillColor=none;top=0;left=0;bottom=0;right=0;fontStyle=1;overflow=hidden;" parent="Scsf48JfyTtr4cscszrT-5" vertex="1">
                    <mxGeometry width="60" height="30" as="geometry">
                        <mxRectangle width="60" height="30" as="alternateBounds"/>
                    </mxGeometry>
                </mxCell>
                <mxCell id="Scsf48JfyTtr4cscszrT-7" value="id_midia" style="shape=partialRectangle;connectable=0;fillColor=none;top=0;left=0;bottom=0;right=0;align=left;spacingLeft=6;fontStyle=5;overflow=hidden;" parent="Scsf48JfyTtr4cscszrT-5" vertex="1">
                    <mxGeometry x="60" width="120" height="30" as="geometry">
                        <mxRectangle width="120" height="30" as="alternateBounds"/>
                    </mxGeometry>
                </mxCell>
                <mxCell id="ON7x3NsvdvlZl7BoR-UR-1" value="episodio" style="shape=table;startSize=30;container=1;collapsible=1;childLayout=tableLayout;fixedRows=1;rowLines=0;fontStyle=1;align=center;resizeLast=1;fillColor=none;" parent="1" vertex="1">
                    <mxGeometry x="-430" y="610" width="180" height="220" as="geometry"/>
                </mxCell>
                <mxCell id="ON7x3NsvdvlZl7BoR-UR-2" value="" style="shape=tableRow;horizontal=0;startSize=0;swimlaneHead=0;swimlaneBody=0;fillColor=none;collapsible=0;dropTarget=0;points=[[0,0.5],[1,0.5]];portConstraint=eastwest;top=0;left=0;right=0;bottom=1;strokeWidth=0;" parent="ON7x3NsvdvlZl7BoR-UR-1" vertex="1">
                    <mxGeometry y="30" width="180" height="30" as="geometry"/>
                </mxCell>
                <mxCell id="ON7x3NsvdvlZl7BoR-UR-3" value="PK" style="shape=partialRectangle;connectable=0;fillColor=none;top=0;left=0;bottom=0;right=0;fontStyle=1;overflow=hidden;" parent="ON7x3NsvdvlZl7BoR-UR-2" vertex="1">
                    <mxGeometry width="60" height="30" as="geometry">
                        <mxRectangle width="60" height="30" as="alternateBounds"/>
                    </mxGeometry>
                </mxCell>
                <mxCell id="ON7x3NsvdvlZl7BoR-UR-4" value="numero_ep" style="shape=partialRectangle;connectable=0;fillColor=none;top=0;left=0;bottom=0;right=0;align=left;spacingLeft=6;fontStyle=5;overflow=hidden;strokeWidth=0;" parent="ON7x3NsvdvlZl7BoR-UR-2" vertex="1">
                    <mxGeometry x="60" width="120" height="30" as="geometry">
                        <mxRectangle width="120" height="30" as="alternateBounds"/>
                    </mxGeometry>
                </mxCell>
                <mxCell id="ON7x3NsvdvlZl7BoR-UR-5" style="shape=tableRow;horizontal=0;startSize=0;swimlaneHead=0;swimlaneBody=0;fillColor=none;collapsible=0;dropTarget=0;points=[[0,0.5],[1,0.5]];portConstraint=eastwest;top=0;left=0;right=0;bottom=1;strokeWidth=0;" parent="ON7x3NsvdvlZl7BoR-UR-1" vertex="1">
                    <mxGeometry y="60" width="180" height="30" as="geometry"/>
                </mxCell>
                <mxCell id="ON7x3NsvdvlZl7BoR-UR-6" value="PK, FK" style="shape=partialRectangle;connectable=0;fillColor=none;top=0;left=0;bottom=0;right=0;fontStyle=1;overflow=hidden;" parent="ON7x3NsvdvlZl7BoR-UR-5" vertex="1">
                    <mxGeometry width="60" height="30" as="geometry">
                        <mxRectangle width="60" height="30" as="alternateBounds"/>
                    </mxGeometry>
                </mxCell>
                <mxCell id="ON7x3NsvdvlZl7BoR-UR-7" value="numero_temp" style="shape=partialRectangle;connectable=0;fillColor=none;top=0;left=0;bottom=0;right=0;align=left;spacingLeft=6;fontStyle=5;overflow=hidden;strokeWidth=0;" parent="ON7x3NsvdvlZl7BoR-UR-5" vertex="1">
                    <mxGeometry x="60" width="120" height="30" as="geometry">
                        <mxRectangle width="120" height="30" as="alternateBounds"/>
                    </mxGeometry>
                </mxCell>
                <mxCell id="aFUdB90o2BpQIxwnt7qt-4" style="shape=tableRow;horizontal=0;startSize=0;swimlaneHead=0;swimlaneBody=0;fillColor=none;collapsible=0;dropTarget=0;points=[[0,0.5],[1,0.5]];portConstraint=eastwest;top=0;left=0;right=0;bottom=1;" parent="ON7x3NsvdvlZl7BoR-UR-1" vertex="1">
                    <mxGeometry y="90" width="180" height="30" as="geometry"/>
                </mxCell>
                <mxCell id="aFUdB90o2BpQIxwnt7qt-5" value="PK, FK" style="shape=partialRectangle;connectable=0;fillColor=none;top=0;left=0;bottom=0;right=0;fontStyle=1;overflow=hidden;" parent="aFUdB90o2BpQIxwnt7qt-4" vertex="1">
                    <mxGeometry width="60" height="30" as="geometry">
                        <mxRectangle width="60" height="30" as="alternateBounds"/>
                    </mxGeometry>
                </mxCell>
                <mxCell id="aFUdB90o2BpQIxwnt7qt-6" value="id_midia" style="shape=partialRectangle;connectable=0;fillColor=none;top=0;left=0;bottom=0;right=0;align=left;spacingLeft=6;fontStyle=5;overflow=hidden;" parent="aFUdB90o2BpQIxwnt7qt-4" vertex="1">
                    <mxGeometry x="60" width="120" height="30" as="geometry">
                        <mxRectangle width="120" height="30" as="alternateBounds"/>
                    </mxGeometry>
                </mxCell>
                <mxCell id="ON7x3NsvdvlZl7BoR-UR-8" value="" style="shape=tableRow;horizontal=0;startSize=0;swimlaneHead=0;swimlaneBody=0;fillColor=none;collapsible=0;dropTarget=0;points=[[0,0.5],[1,0.5]];portConstraint=eastwest;top=0;left=0;right=0;bottom=0;" parent="ON7x3NsvdvlZl7BoR-UR-1" vertex="1">
                    <mxGeometry y="120" width="180" height="30" as="geometry"/>
                </mxCell>
                <mxCell id="ON7x3NsvdvlZl7BoR-UR-9" value="" style="shape=partialRectangle;connectable=0;fillColor=none;top=0;left=0;bottom=0;right=0;editable=1;overflow=hidden;" parent="ON7x3NsvdvlZl7BoR-UR-8" vertex="1">
                    <mxGeometry width="60" height="30" as="geometry">
                        <mxRectangle width="60" height="30" as="alternateBounds"/>
                    </mxGeometry>
                </mxCell>
                <mxCell id="ON7x3NsvdvlZl7BoR-UR-10" value="nome_ep" style="shape=partialRectangle;connectable=0;fillColor=none;top=0;left=0;bottom=0;right=0;align=left;spacingLeft=6;overflow=hidden;" parent="ON7x3NsvdvlZl7BoR-UR-8" vertex="1">
                    <mxGeometry x="60" width="120" height="30" as="geometry">
                        <mxRectangle width="120" height="30" as="alternateBounds"/>
                    </mxGeometry>
                </mxCell>
                <mxCell id="wCvnO7DRW0Q41rjmuZSZ-1" style="shape=tableRow;horizontal=0;startSize=0;swimlaneHead=0;swimlaneBody=0;fillColor=none;collapsible=0;dropTarget=0;points=[[0,0.5],[1,0.5]];portConstraint=eastwest;top=0;left=0;right=0;bottom=0;" parent="ON7x3NsvdvlZl7BoR-UR-1" vertex="1">
                    <mxGeometry y="150" width="180" height="30" as="geometry"/>
                </mxCell>
                <mxCell id="wCvnO7DRW0Q41rjmuZSZ-2" style="shape=partialRectangle;connectable=0;fillColor=none;top=0;left=0;bottom=0;right=0;editable=1;overflow=hidden;" parent="wCvnO7DRW0Q41rjmuZSZ-1" vertex="1">
                    <mxGeometry width="60" height="30" as="geometry">
                        <mxRectangle width="60" height="30" as="alternateBounds"/>
                    </mxGeometry>
                </mxCell>
                <mxCell id="wCvnO7DRW0Q41rjmuZSZ-3" value="duracao" style="shape=partialRectangle;connectable=0;fillColor=none;top=0;left=0;bottom=0;right=0;align=left;spacingLeft=6;overflow=hidden;" parent="wCvnO7DRW0Q41rjmuZSZ-1" vertex="1">
                    <mxGeometry x="60" width="120" height="30" as="geometry">
                        <mxRectangle width="120" height="30" as="alternateBounds"/>
                    </mxGeometry>
                </mxCell>
                <mxCell id="aFUdB90o2BpQIxwnt7qt-1" style="shape=tableRow;horizontal=0;startSize=0;swimlaneHead=0;swimlaneBody=0;fillColor=none;collapsible=0;dropTarget=0;points=[[0,0.5],[1,0.5]];portConstraint=eastwest;top=0;left=0;right=0;bottom=0;" parent="ON7x3NsvdvlZl7BoR-UR-1" vertex="1">
                    <mxGeometry y="180" width="180" height="30" as="geometry"/>
                </mxCell>
                <mxCell id="aFUdB90o2BpQIxwnt7qt-2" style="shape=partialRectangle;connectable=0;fillColor=none;top=0;left=0;bottom=0;right=0;editable=1;overflow=hidden;" parent="aFUdB90o2BpQIxwnt7qt-1" vertex="1">
                    <mxGeometry width="60" height="30" as="geometry">
                        <mxRectangle width="60" height="30" as="alternateBounds"/>
                    </mxGeometry>
                </mxCell>
                <mxCell id="aFUdB90o2BpQIxwnt7qt-3" value="descricao" style="shape=partialRectangle;connectable=0;fillColor=none;top=0;left=0;bottom=0;right=0;align=left;spacingLeft=6;overflow=hidden;" parent="aFUdB90o2BpQIxwnt7qt-1" vertex="1">
                    <mxGeometry x="60" width="120" height="30" as="geometry">
                        <mxRectangle width="120" height="30" as="alternateBounds"/>
                    </mxGeometry>
                </mxCell>
                <mxCell id="6qCjtxoC5RcLiUtu9vZU-1" value="midia_generos" style="shape=table;startSize=30;container=1;collapsible=1;childLayout=tableLayout;fixedRows=1;rowLines=0;fontStyle=1;align=center;resizeLast=1;fillColor=none;" parent="1" vertex="1">
                    <mxGeometry x="150" y="300" width="180" height="100" as="geometry"/>
                </mxCell>
                <mxCell id="6qCjtxoC5RcLiUtu9vZU-2" value="" style="shape=tableRow;horizontal=0;startSize=0;swimlaneHead=0;swimlaneBody=0;fillColor=none;collapsible=0;dropTarget=0;points=[[0,0.5],[1,0.5]];portConstraint=eastwest;top=0;left=0;right=0;bottom=1;strokeWidth=0;" parent="6qCjtxoC5RcLiUtu9vZU-1" vertex="1">
                    <mxGeometry y="30" width="180" height="30" as="geometry"/>
                </mxCell>
                <mxCell id="6qCjtxoC5RcLiUtu9vZU-3" value="PK" style="shape=partialRectangle;connectable=0;fillColor=none;top=0;left=0;bottom=0;right=0;fontStyle=1;overflow=hidden;" parent="6qCjtxoC5RcLiUtu9vZU-2" vertex="1">
                    <mxGeometry width="60" height="30" as="geometry">
                        <mxRectangle width="60" height="30" as="alternateBounds"/>
                    </mxGeometry>
                </mxCell>
                <mxCell id="6qCjtxoC5RcLiUtu9vZU-4" value="genero" style="shape=partialRectangle;connectable=0;fillColor=none;top=0;left=0;bottom=0;right=0;align=left;spacingLeft=6;fontStyle=5;overflow=hidden;strokeWidth=0;" parent="6qCjtxoC5RcLiUtu9vZU-2" vertex="1">
                    <mxGeometry x="60" width="120" height="30" as="geometry">
                        <mxRectangle width="120" height="30" as="alternateBounds"/>
                    </mxGeometry>
                </mxCell>
                <mxCell id="6qCjtxoC5RcLiUtu9vZU-5" style="shape=tableRow;horizontal=0;startSize=0;swimlaneHead=0;swimlaneBody=0;fillColor=none;collapsible=0;dropTarget=0;points=[[0,0.5],[1,0.5]];portConstraint=eastwest;top=0;left=0;right=0;bottom=1;strokeWidth=0;" parent="6qCjtxoC5RcLiUtu9vZU-1" vertex="1">
                    <mxGeometry y="60" width="180" height="30" as="geometry"/>
                </mxCell>
                <mxCell id="6qCjtxoC5RcLiUtu9vZU-6" value="PK, FK" style="shape=partialRectangle;connectable=0;fillColor=none;top=0;left=0;bottom=0;right=0;fontStyle=1;overflow=hidden;" parent="6qCjtxoC5RcLiUtu9vZU-5" vertex="1">
                    <mxGeometry width="60" height="30" as="geometry">
                        <mxRectangle width="60" height="30" as="alternateBounds"/>
                    </mxGeometry>
                </mxCell>
                <mxCell id="6qCjtxoC5RcLiUtu9vZU-7" value="id_midia" style="shape=partialRectangle;connectable=0;fillColor=none;top=0;left=0;bottom=0;right=0;align=left;spacingLeft=6;fontStyle=5;overflow=hidden;strokeWidth=0;" parent="6qCjtxoC5RcLiUtu9vZU-5" vertex="1">
                    <mxGeometry x="60" width="120" height="30" as="geometry">
                        <mxRectangle width="120" height="30" as="alternateBounds"/>
                    </mxGeometry>
                </mxCell>
                <mxCell id="LTWypVcpIR1HkcCd1-DF-1" style="edgeStyle=orthogonalEdgeStyle;rounded=0;orthogonalLoop=1;jettySize=auto;html=1;entryX=0;entryY=0.5;entryDx=0;entryDy=0;startArrow=classic;startFill=1;endArrow=none;endFill=0;exitX=-0.007;exitY=1.035;exitDx=0;exitDy=0;exitPerimeter=0;fillColor=none;" parent="1" source="USOs8W3Zsqg8Qt5Viovd-1" target="6qCjtxoC5RcLiUtu9vZU-5" edge="1">
                    <mxGeometry relative="1" as="geometry">
                        <mxPoint x="140" y="260" as="sourcePoint"/>
                        <Array as="points">
                            <mxPoint x="110" y="261"/>
                            <mxPoint x="110" y="375"/>
                        </Array>
                    </mxGeometry>
                </mxCell>
                <mxCell id="rxkfjyC-rU_dp3_MY_md-6" style="edgeStyle=orthogonalEdgeStyle;rounded=0;orthogonalLoop=1;jettySize=auto;html=1;exitX=1;exitY=0.5;exitDx=0;exitDy=0;entryX=1;entryY=0.5;entryDx=0;entryDy=0;startArrow=classic;startFill=1;endArrow=none;endFill=0;fillColor=none;" parent="1" source="IFs8lGpOd2_MFRx54395-1" target="MMWVPXAWwjkmqY6SfI9b-2" edge="1">
                    <mxGeometry relative="1" as="geometry">
                        <Array as="points">
                            <mxPoint x="410" y="215"/>
                            <mxPoint x="410" y="745"/>
                        </Array>
                    </mxGeometry>
                </mxCell>
                <mxCell id="rxkfjyC-rU_dp3_MY_md-7" style="edgeStyle=orthogonalEdgeStyle;rounded=0;orthogonalLoop=1;jettySize=auto;html=1;startArrow=classic;startFill=1;endArrow=none;endFill=0;entryX=1;entryY=0.5;entryDx=0;entryDy=0;exitX=1;exitY=0.5;exitDx=0;exitDy=0;fillColor=none;" parent="1" source="gJl9PJvljryJPRqh59uf-5" target="MMWVPXAWwjkmqY6SfI9b-9" edge="1">
                    <mxGeometry relative="1" as="geometry">
                        <mxPoint x="430" y="830" as="targetPoint"/>
                        <mxPoint x="350" y="180" as="sourcePoint"/>
                        <Array as="points">
                            <mxPoint x="440" y="185"/>
                            <mxPoint x="440" y="895"/>
                        </Array>
                    </mxGeometry>
                </mxCell>
                <mxCell id="rxkfjyC-rU_dp3_MY_md-8" style="edgeStyle=orthogonalEdgeStyle;rounded=0;orthogonalLoop=1;jettySize=auto;html=1;startArrow=classic;startFill=1;endArrow=none;endFill=0;entryX=1;entryY=0.5;entryDx=0;entryDy=0;exitX=1;exitY=0.5;exitDx=0;exitDy=0;fillColor=none;" parent="1" source="gJl9PJvljryJPRqh59uf-2" target="MMWVPXAWwjkmqY6SfI9b-16" edge="1">
                    <mxGeometry relative="1" as="geometry">
                        <mxPoint x="470" y="880" as="targetPoint"/>
                        <mxPoint x="410" y="140" as="sourcePoint"/>
                        <Array as="points">
                            <mxPoint x="470" y="155"/>
                            <mxPoint x="470" y="1075"/>
                        </Array>
                    </mxGeometry>
                </mxCell>
                <mxCell id="rxkfjyC-rU_dp3_MY_md-9" style="edgeStyle=orthogonalEdgeStyle;rounded=0;orthogonalLoop=1;jettySize=auto;html=1;exitX=0;exitY=0.5;exitDx=0;exitDy=0;entryX=1;entryY=0.5;entryDx=0;entryDy=0;startArrow=classic;startFill=1;endArrow=none;endFill=0;fillColor=none;" parent="1" source="PEJJQN-HhevAdJgKn_HA-3" target="Scsf48JfyTtr4cscszrT-5" edge="1">
                    <mxGeometry relative="1" as="geometry"/>
                </mxCell>
                <mxCell id="rxkfjyC-rU_dp3_MY_md-10" style="edgeStyle=orthogonalEdgeStyle;rounded=0;orthogonalLoop=1;jettySize=auto;html=1;exitX=0;exitY=0.5;exitDx=0;exitDy=0;entryX=1;entryY=0.5;entryDx=0;entryDy=0;startArrow=classic;startFill=1;endArrow=none;endFill=0;fillColor=none;" parent="1" source="Scsf48JfyTtr4cscszrT-5" target="aFUdB90o2BpQIxwnt7qt-4" edge="1">
                    <mxGeometry relative="1" as="geometry">
                        <Array as="points">
                            <mxPoint x="-180" y="655"/>
                            <mxPoint x="-180" y="715"/>
                        </Array>
                    </mxGeometry>
                </mxCell>
                <mxCell id="rxkfjyC-rU_dp3_MY_md-11" style="edgeStyle=orthogonalEdgeStyle;rounded=0;orthogonalLoop=1;jettySize=auto;html=1;exitX=0;exitY=0.5;exitDx=0;exitDy=0;entryX=1;entryY=0.5;entryDx=0;entryDy=0;startArrow=classic;startFill=1;endArrow=none;endFill=0;fillColor=none;" parent="1" source="Scsf48JfyTtr4cscszrT-2" target="ON7x3NsvdvlZl7BoR-UR-5" edge="1">
                    <mxGeometry relative="1" as="geometry">
                        <Array as="points">
                            <mxPoint x="-200" y="625"/>
                            <mxPoint x="-200" y="685"/>
                        </Array>
                    </mxGeometry>
                </mxCell>
                <mxCell id="ejLQeXhG5e7kexLqbXbK-7" style="edgeStyle=orthogonalEdgeStyle;rounded=0;orthogonalLoop=1;jettySize=auto;html=1;exitX=0;exitY=0.5;exitDx=0;exitDy=0;entryX=1;entryY=0.5;entryDx=0;entryDy=0;startArrow=classic;startFill=1;endArrow=none;endFill=0;fillColor=none;" parent="1" source="gJl9PJvljryJPRqh59uf-2" target="ejLQeXhG5e7kexLqbXbK-4" edge="1">
                    <mxGeometry relative="1" as="geometry"/>
                </mxCell>
                <mxCell id="n6YF2CirP_3VGDOpMMBt-5" style="edgeStyle=orthogonalEdgeStyle;rounded=0;orthogonalLoop=1;jettySize=auto;html=1;exitX=1;exitY=0.5;exitDx=0;exitDy=0;entryX=0;entryY=0.5;entryDx=0;entryDy=0;startArrow=classic;startFill=1;endArrow=none;endFill=0;fillColor=none;" parent="1" source="zsWrf0b4NACeGE5gNBOO-2" target="n6YF2CirP_3VGDOpMMBt-1" edge="1">
                    <mxGeometry relative="1" as="geometry"/>
                </mxCell>
                <mxCell id="rpWOZU6NJl-nbFFFRQVn-4" style="edgeStyle=orthogonalEdgeStyle;rounded=0;orthogonalLoop=1;jettySize=auto;html=1;exitX=0.5;exitY=1;exitDx=0;exitDy=0;entryX=0;entryY=0.5;entryDx=0;entryDy=0;startArrow=classic;startFill=1;endArrow=none;endFill=0;fillColor=none;" parent="1" source="zsWrf0b4NACeGE5gNBOO-1" target="olchY2nkoEW7F7KIqQNg-1" edge="1">
                    <mxGeometry relative="1" as="geometry">
                        <Array as="points">
                            <mxPoint x="-640" y="410"/>
                            <mxPoint x="-770" y="410"/>
                            <mxPoint x="-770" y="555"/>
                        </Array>
                    </mxGeometry>
                </mxCell>
                <mxCell id="7enD2b8rOCR-RBse6SjV-1" value="pertence" style="shape=table;startSize=30;container=1;collapsible=1;childLayout=tableLayout;fixedRows=1;rowLines=0;fontStyle=1;align=center;resizeLast=1;fillColor=none;strokeWidth=1;" parent="1" vertex="1">
                    <mxGeometry x="500" y="-300" width="180" height="130" as="geometry"/>
                </mxCell>
                <mxCell id="7enD2b8rOCR-RBse6SjV-2" value="" style="shape=tableRow;horizontal=0;startSize=0;swimlaneHead=0;swimlaneBody=0;fillColor=none;collapsible=0;dropTarget=0;points=[[0,0.5],[1,0.5]];portConstraint=eastwest;top=0;left=0;right=0;bottom=1;strokeWidth=0;" parent="7enD2b8rOCR-RBse6SjV-1" vertex="1">
                    <mxGeometry y="30" width="180" height="30" as="geometry"/>
                </mxCell>
                <mxCell id="7enD2b8rOCR-RBse6SjV-3" value="PK, FK" style="shape=partialRectangle;connectable=0;fillColor=none;top=0;left=0;bottom=0;right=0;fontStyle=1;overflow=hidden;" parent="7enD2b8rOCR-RBse6SjV-2" vertex="1">
                    <mxGeometry width="60" height="30" as="geometry">
                        <mxRectangle width="60" height="30" as="alternateBounds"/>
                    </mxGeometry>
                </mxCell>
                <mxCell id="7enD2b8rOCR-RBse6SjV-4" value="nome_lista" style="shape=partialRectangle;connectable=0;fillColor=none;top=0;left=0;bottom=0;right=0;align=left;spacingLeft=6;fontStyle=5;overflow=hidden;strokeWidth=0;" parent="7enD2b8rOCR-RBse6SjV-2" vertex="1">
                    <mxGeometry x="60" width="120" height="30" as="geometry">
                        <mxRectangle width="120" height="30" as="alternateBounds"/>
                    </mxGeometry>
                </mxCell>
                <mxCell id="7enD2b8rOCR-RBse6SjV-5" style="shape=tableRow;horizontal=0;startSize=0;swimlaneHead=0;swimlaneBody=0;fillColor=none;collapsible=0;dropTarget=0;points=[[0,0.5],[1,0.5]];portConstraint=eastwest;top=0;left=0;right=0;bottom=1;strokeWidth=0;" parent="7enD2b8rOCR-RBse6SjV-1" vertex="1">
                    <mxGeometry y="60" width="180" height="30" as="geometry"/>
                </mxCell>
                <mxCell id="7enD2b8rOCR-RBse6SjV-6" value="PK, FK" style="shape=partialRectangle;connectable=0;fillColor=none;top=0;left=0;bottom=0;right=0;fontStyle=1;overflow=hidden;" parent="7enD2b8rOCR-RBse6SjV-5" vertex="1">
                    <mxGeometry width="60" height="30" as="geometry">
                        <mxRectangle width="60" height="30" as="alternateBounds"/>
                    </mxGeometry>
                </mxCell>
                <mxCell id="7enD2b8rOCR-RBse6SjV-7" value="nome_usuario" style="shape=partialRectangle;connectable=0;fillColor=none;top=0;left=0;bottom=0;right=0;align=left;spacingLeft=6;fontStyle=5;overflow=hidden;" parent="7enD2b8rOCR-RBse6SjV-5" vertex="1">
                    <mxGeometry x="60" width="120" height="30" as="geometry">
                        <mxRectangle width="120" height="30" as="alternateBounds"/>
                    </mxGeometry>
                </mxCell>
                <mxCell id="7enD2b8rOCR-RBse6SjV-14" style="shape=tableRow;horizontal=0;startSize=0;swimlaneHead=0;swimlaneBody=0;fillColor=none;collapsible=0;dropTarget=0;points=[[0,0.5],[1,0.5]];portConstraint=eastwest;top=0;left=0;right=0;bottom=1;strokeWidth=0;" parent="7enD2b8rOCR-RBse6SjV-1" vertex="1">
                    <mxGeometry y="90" width="180" height="30" as="geometry"/>
                </mxCell>
                <mxCell id="7enD2b8rOCR-RBse6SjV-15" value="PK, FK" style="shape=partialRectangle;connectable=0;fillColor=none;top=0;left=0;bottom=0;right=0;fontStyle=1;overflow=hidden;" parent="7enD2b8rOCR-RBse6SjV-14" vertex="1">
                    <mxGeometry width="60" height="30" as="geometry">
                        <mxRectangle width="60" height="30" as="alternateBounds"/>
                    </mxGeometry>
                </mxCell>
                <mxCell id="7enD2b8rOCR-RBse6SjV-16" value="id_midia" style="shape=partialRectangle;connectable=0;fillColor=none;top=0;left=0;bottom=0;right=0;align=left;spacingLeft=6;fontStyle=5;overflow=hidden;" parent="7enD2b8rOCR-RBse6SjV-14" vertex="1">
                    <mxGeometry x="60" width="120" height="30" as="geometry">
                        <mxRectangle width="120" height="30" as="alternateBounds"/>
                    </mxGeometry>
                </mxCell>
                <mxCell id="7enD2b8rOCR-RBse6SjV-17" style="edgeStyle=orthogonalEdgeStyle;rounded=0;orthogonalLoop=1;jettySize=auto;html=1;exitX=1;exitY=0.5;exitDx=0;exitDy=0;entryX=0;entryY=0.5;entryDx=0;entryDy=0;startArrow=classic;startFill=1;endArrow=none;endFill=0;fillColor=none;" parent="1" source="bLIWcwhfD9qcq8pM-FlF-2" target="7enD2b8rOCR-RBse6SjV-2" edge="1">
                    <mxGeometry relative="1" as="geometry"/>
                </mxCell>
                <mxCell id="5v9euWalOSnjDp-jNHdY-1" value="avaliacao" style="shape=table;startSize=30;container=1;collapsible=1;childLayout=tableLayout;fixedRows=1;rowLines=0;fontStyle=1;align=center;resizeLast=1;fillColor=none;" parent="1" vertex="1">
                    <mxGeometry x="-50" y="-110" width="180" height="160" as="geometry"/>
                </mxCell>
                <mxCell id="5v9euWalOSnjDp-jNHdY-2" value="" style="shape=tableRow;horizontal=0;startSize=0;swimlaneHead=0;swimlaneBody=0;fillColor=none;collapsible=0;dropTarget=0;points=[[0,0.5],[1,0.5]];portConstraint=eastwest;top=0;left=0;right=0;bottom=1;strokeWidth=0;" parent="5v9euWalOSnjDp-jNHdY-1" vertex="1">
                    <mxGeometry y="30" width="180" height="30" as="geometry"/>
                </mxCell>
                <mxCell id="5v9euWalOSnjDp-jNHdY-3" value="PK, FK" style="shape=partialRectangle;connectable=0;fillColor=none;top=0;left=0;bottom=0;right=0;fontStyle=1;overflow=hidden;" parent="5v9euWalOSnjDp-jNHdY-2" vertex="1">
                    <mxGeometry width="60" height="30" as="geometry">
                        <mxRectangle width="60" height="30" as="alternateBounds"/>
                    </mxGeometry>
                </mxCell>
                <mxCell id="5v9euWalOSnjDp-jNHdY-4" value="nome_usuario" style="shape=partialRectangle;connectable=0;fillColor=none;top=0;left=0;bottom=0;right=0;align=left;spacingLeft=6;fontStyle=5;overflow=hidden;" parent="5v9euWalOSnjDp-jNHdY-2" vertex="1">
                    <mxGeometry x="60" width="120" height="30" as="geometry">
                        <mxRectangle width="120" height="30" as="alternateBounds"/>
                    </mxGeometry>
                </mxCell>
                <mxCell id="5v9euWalOSnjDp-jNHdY-17" style="shape=tableRow;horizontal=0;startSize=0;swimlaneHead=0;swimlaneBody=0;fillColor=none;collapsible=0;dropTarget=0;points=[[0,0.5],[1,0.5]];portConstraint=eastwest;top=0;left=0;right=0;bottom=1;strokeWidth=1;" parent="5v9euWalOSnjDp-jNHdY-1" vertex="1">
                    <mxGeometry y="60" width="180" height="30" as="geometry"/>
                </mxCell>
                <mxCell id="5v9euWalOSnjDp-jNHdY-18" value="PK, FK" style="shape=partialRectangle;connectable=0;fillColor=none;top=0;left=0;bottom=0;right=0;fontStyle=1;overflow=hidden;" parent="5v9euWalOSnjDp-jNHdY-17" vertex="1">
                    <mxGeometry width="60" height="30" as="geometry">
                        <mxRectangle width="60" height="30" as="alternateBounds"/>
                    </mxGeometry>
                </mxCell>
                <mxCell id="5v9euWalOSnjDp-jNHdY-19" value="id_midia" style="shape=partialRectangle;connectable=0;fillColor=none;top=0;left=0;bottom=0;right=0;align=left;spacingLeft=6;fontStyle=5;overflow=hidden;" parent="5v9euWalOSnjDp-jNHdY-17" vertex="1">
                    <mxGeometry x="60" width="120" height="30" as="geometry">
                        <mxRectangle width="120" height="30" as="alternateBounds"/>
                    </mxGeometry>
                </mxCell>
                <mxCell id="5v9euWalOSnjDp-jNHdY-5" value="" style="shape=tableRow;horizontal=0;startSize=0;swimlaneHead=0;swimlaneBody=0;fillColor=none;collapsible=0;dropTarget=0;points=[[0,0.5],[1,0.5]];portConstraint=eastwest;top=0;left=0;right=0;bottom=0;" parent="5v9euWalOSnjDp-jNHdY-1" vertex="1">
                    <mxGeometry y="90" width="180" height="30" as="geometry"/>
                </mxCell>
                <mxCell id="5v9euWalOSnjDp-jNHdY-6" value="" style="shape=partialRectangle;connectable=0;fillColor=none;top=0;left=0;bottom=0;right=0;editable=1;overflow=hidden;" parent="5v9euWalOSnjDp-jNHdY-5" vertex="1">
                    <mxGeometry width="60" height="30" as="geometry">
                        <mxRectangle width="60" height="30" as="alternateBounds"/>
                    </mxGeometry>
                </mxCell>
                <mxCell id="5v9euWalOSnjDp-jNHdY-7" value="nota" style="shape=partialRectangle;connectable=0;fillColor=none;top=0;left=0;bottom=0;right=0;align=left;spacingLeft=6;overflow=hidden;" parent="5v9euWalOSnjDp-jNHdY-5" vertex="1">
                    <mxGeometry x="60" width="120" height="30" as="geometry">
                        <mxRectangle width="120" height="30" as="alternateBounds"/>
                    </mxGeometry>
                </mxCell>
                <mxCell id="5v9euWalOSnjDp-jNHdY-8" value="" style="shape=tableRow;horizontal=0;startSize=0;swimlaneHead=0;swimlaneBody=0;fillColor=none;collapsible=0;dropTarget=0;points=[[0,0.5],[1,0.5]];portConstraint=eastwest;top=0;left=0;right=0;bottom=0;" parent="5v9euWalOSnjDp-jNHdY-1" vertex="1">
                    <mxGeometry y="120" width="180" height="30" as="geometry"/>
                </mxCell>
                <mxCell id="5v9euWalOSnjDp-jNHdY-9" value="" style="shape=partialRectangle;connectable=0;fillColor=none;top=0;left=0;bottom=0;right=0;editable=1;overflow=hidden;" parent="5v9euWalOSnjDp-jNHdY-8" vertex="1">
                    <mxGeometry width="60" height="30" as="geometry">
                        <mxRectangle width="60" height="30" as="alternateBounds"/>
                    </mxGeometry>
                </mxCell>
                <mxCell id="5v9euWalOSnjDp-jNHdY-10" value="resenha" style="shape=partialRectangle;connectable=0;fillColor=none;top=0;left=0;bottom=0;right=0;align=left;spacingLeft=6;overflow=hidden;" parent="5v9euWalOSnjDp-jNHdY-8" vertex="1">
                    <mxGeometry x="60" width="120" height="30" as="geometry">
                        <mxRectangle width="120" height="30" as="alternateBounds"/>
                    </mxGeometry>
                </mxCell>
                <mxCell id="5v9euWalOSnjDp-jNHdY-20" style="edgeStyle=orthogonalEdgeStyle;rounded=0;orthogonalLoop=1;jettySize=auto;html=1;exitX=1;exitY=0.5;exitDx=0;exitDy=0;entryX=0;entryY=0.5;entryDx=0;entryDy=0;startArrow=classic;startFill=1;endArrow=none;endFill=0;fillColor=none;" parent="1" source="DTHCasOrFm0AEnzNELyj-1" target="7enD2b8rOCR-RBse6SjV-5" edge="1">
                    <mxGeometry relative="1" as="geometry"/>
                </mxCell>
                <mxCell id="jnYWs89yA4B4rrRi1Y7h-1" value="direcao" style="shape=table;startSize=30;container=1;collapsible=1;childLayout=tableLayout;fixedRows=1;rowLines=0;fontStyle=1;align=center;resizeLast=1;fillColor=none;" parent="1" vertex="1">
                    <mxGeometry x="-270" y="10" width="180" height="100" as="geometry"/>
                </mxCell>
                <mxCell id="jnYWs89yA4B4rrRi1Y7h-2" value="" style="shape=tableRow;horizontal=0;startSize=0;swimlaneHead=0;swimlaneBody=0;fillColor=none;collapsible=0;dropTarget=0;points=[[0,0.5],[1,0.5]];portConstraint=eastwest;top=0;left=0;right=0;bottom=1;strokeWidth=0;" parent="jnYWs89yA4B4rrRi1Y7h-1" vertex="1">
                    <mxGeometry y="30" width="180" height="30" as="geometry"/>
                </mxCell>
                <mxCell id="jnYWs89yA4B4rrRi1Y7h-3" value="PK, FK" style="shape=partialRectangle;connectable=0;fillColor=none;top=0;left=0;bottom=0;right=0;fontStyle=1;overflow=hidden;" parent="jnYWs89yA4B4rrRi1Y7h-2" vertex="1">
                    <mxGeometry width="60" height="30" as="geometry">
                        <mxRectangle width="60" height="30" as="alternateBounds"/>
                    </mxGeometry>
                </mxCell>
                <mxCell id="jnYWs89yA4B4rrRi1Y7h-4" value="id_dir" style="shape=partialRectangle;connectable=0;fillColor=none;top=0;left=0;bottom=0;right=0;align=left;spacingLeft=6;fontStyle=5;overflow=hidden;" parent="jnYWs89yA4B4rrRi1Y7h-2" vertex="1">
                    <mxGeometry x="60" width="120" height="30" as="geometry">
                        <mxRectangle width="120" height="30" as="alternateBounds"/>
                    </mxGeometry>
                </mxCell>
                <mxCell id="jnYWs89yA4B4rrRi1Y7h-17" style="shape=tableRow;horizontal=0;startSize=0;swimlaneHead=0;swimlaneBody=0;fillColor=none;collapsible=0;dropTarget=0;points=[[0,0.5],[1,0.5]];portConstraint=eastwest;top=0;left=0;right=0;bottom=1;strokeWidth=0;" parent="jnYWs89yA4B4rrRi1Y7h-1" vertex="1">
                    <mxGeometry y="60" width="180" height="30" as="geometry"/>
                </mxCell>
                <mxCell id="jnYWs89yA4B4rrRi1Y7h-18" value="PK, FK" style="shape=partialRectangle;connectable=0;fillColor=none;top=0;left=0;bottom=0;right=0;fontStyle=1;overflow=hidden;" parent="jnYWs89yA4B4rrRi1Y7h-17" vertex="1">
                    <mxGeometry width="60" height="30" as="geometry">
                        <mxRectangle width="60" height="30" as="alternateBounds"/>
                    </mxGeometry>
                </mxCell>
                <mxCell id="jnYWs89yA4B4rrRi1Y7h-19" value="id_midia" style="shape=partialRectangle;connectable=0;fillColor=none;top=0;left=0;bottom=0;right=0;align=left;spacingLeft=6;fontStyle=5;overflow=hidden;" parent="jnYWs89yA4B4rrRi1Y7h-17" vertex="1">
                    <mxGeometry x="60" width="120" height="30" as="geometry">
                        <mxRectangle width="120" height="30" as="alternateBounds"/>
                    </mxGeometry>
                </mxCell>
                <mxCell id="jnYWs89yA4B4rrRi1Y7h-20" style="edgeStyle=orthogonalEdgeStyle;rounded=0;orthogonalLoop=1;jettySize=auto;html=1;exitX=1;exitY=0.5;exitDx=0;exitDy=0;entryX=0;entryY=0.5;entryDx=0;entryDy=0;startArrow=classic;startFill=1;endArrow=none;endFill=0;fillColor=none;" parent="1" source="icnb_eeS4xduSv06CVTZ-2" target="jnYWs89yA4B4rrRi1Y7h-2" edge="1">
                    <mxGeometry relative="1" as="geometry"/>
                </mxCell>
                <mxCell id="WHFdX1zFAuZr_nL35hY2-1" value="participacao_ator" style="shape=table;startSize=35;container=1;collapsible=1;childLayout=tableLayout;fixedRows=1;rowLines=0;fontStyle=1;align=center;resizeLast=1;fillColor=none;" parent="1" vertex="1">
                    <mxGeometry x="-520" y="80" width="180" height="100" as="geometry"/>
                </mxCell>
                <mxCell id="WHFdX1zFAuZr_nL35hY2-2" value="" style="shape=tableRow;horizontal=0;startSize=0;swimlaneHead=0;swimlaneBody=0;fillColor=none;collapsible=0;dropTarget=0;points=[[0,0.5],[1,0.5]];portConstraint=eastwest;top=0;left=0;right=0;bottom=1;strokeWidth=0;" parent="WHFdX1zFAuZr_nL35hY2-1" vertex="1">
                    <mxGeometry y="35" width="180" height="30" as="geometry"/>
                </mxCell>
                <mxCell id="WHFdX1zFAuZr_nL35hY2-3" value="PK, FK" style="shape=partialRectangle;connectable=0;fillColor=none;top=0;left=0;bottom=0;right=0;fontStyle=1;overflow=hidden;" parent="WHFdX1zFAuZr_nL35hY2-2" vertex="1">
                    <mxGeometry width="60" height="30" as="geometry">
                        <mxRectangle width="60" height="30" as="alternateBounds"/>
                    </mxGeometry>
                </mxCell>
                <mxCell id="WHFdX1zFAuZr_nL35hY2-4" value="id_ator" style="shape=partialRectangle;connectable=0;fillColor=none;top=0;left=0;bottom=0;right=0;align=left;spacingLeft=6;fontStyle=5;overflow=hidden;" parent="WHFdX1zFAuZr_nL35hY2-2" vertex="1">
                    <mxGeometry x="60" width="120" height="30" as="geometry">
                        <mxRectangle width="120" height="30" as="alternateBounds"/>
                    </mxGeometry>
                </mxCell>
                <mxCell id="WHFdX1zFAuZr_nL35hY2-11" style="shape=tableRow;horizontal=0;startSize=0;swimlaneHead=0;swimlaneBody=0;fillColor=none;collapsible=0;dropTarget=0;points=[[0,0.5],[1,0.5]];portConstraint=eastwest;top=0;left=0;right=0;bottom=1;strokeWidth=0;" parent="WHFdX1zFAuZr_nL35hY2-1" vertex="1">
                    <mxGeometry y="65" width="180" height="30" as="geometry"/>
                </mxCell>
                <mxCell id="WHFdX1zFAuZr_nL35hY2-12" value="PK, FK" style="shape=partialRectangle;connectable=0;fillColor=none;top=0;left=0;bottom=0;right=0;fontStyle=1;overflow=hidden;" parent="WHFdX1zFAuZr_nL35hY2-11" vertex="1">
                    <mxGeometry width="60" height="30" as="geometry">
                        <mxRectangle width="60" height="30" as="alternateBounds"/>
                    </mxGeometry>
                </mxCell>
                <mxCell id="WHFdX1zFAuZr_nL35hY2-13" value="id_midia" style="shape=partialRectangle;connectable=0;fillColor=none;top=0;left=0;bottom=0;right=0;align=left;spacingLeft=6;fontStyle=5;overflow=hidden;" parent="WHFdX1zFAuZr_nL35hY2-11" vertex="1">
                    <mxGeometry x="60" width="120" height="30" as="geometry">
                        <mxRectangle width="120" height="30" as="alternateBounds"/>
                    </mxGeometry>
                </mxCell>
                <mxCell id="1jV5TByyxDfY4hJkKKyv-4" style="edgeStyle=orthogonalEdgeStyle;rounded=0;orthogonalLoop=1;jettySize=auto;html=1;exitX=0;exitY=0.5;exitDx=0;exitDy=0;startArrow=classic;startFill=1;endArrow=none;endFill=0;fillColor=none;" parent="1" source="IFs8lGpOd2_MFRx54395-1" edge="1">
                    <mxGeometry relative="1" as="geometry">
                        <mxPoint x="-560" y="530" as="targetPoint"/>
                        <Array as="points">
                            <mxPoint x="70" y="215"/>
                            <mxPoint x="70" y="530"/>
                            <mxPoint x="-560" y="530"/>
                        </Array>
                    </mxGeometry>
                </mxCell>
                <mxCell id="P0SjYmlm0OOzNPO-IwvO-1" value="amizade" style="shape=table;startSize=30;container=1;collapsible=1;childLayout=tableLayout;fixedRows=1;rowLines=0;fontStyle=1;align=center;resizeLast=1;fillColor=none;" parent="1" vertex="1">
                    <mxGeometry x="-360" y="-440" width="180" height="130" as="geometry"/>
                </mxCell>
                <mxCell id="P0SjYmlm0OOzNPO-IwvO-2" value="" style="shape=tableRow;horizontal=0;startSize=0;swimlaneHead=0;swimlaneBody=0;fillColor=none;collapsible=0;dropTarget=0;points=[[0,0.5],[1,0.5]];portConstraint=eastwest;top=0;left=0;right=0;bottom=1;strokeWidth=0;" parent="P0SjYmlm0OOzNPO-IwvO-1" vertex="1">
                    <mxGeometry y="30" width="180" height="30" as="geometry"/>
                </mxCell>
                <mxCell id="P0SjYmlm0OOzNPO-IwvO-3" value="PK, FK" style="shape=partialRectangle;connectable=0;fillColor=none;top=0;left=0;bottom=0;right=0;fontStyle=1;overflow=hidden;" parent="P0SjYmlm0OOzNPO-IwvO-2" vertex="1">
                    <mxGeometry width="60" height="30" as="geometry">
                        <mxRectangle width="60" height="30" as="alternateBounds"/>
                    </mxGeometry>
                </mxCell>
                <mxCell id="P0SjYmlm0OOzNPO-IwvO-4" value="nome_usuario_env" style="shape=partialRectangle;connectable=0;fillColor=none;top=0;left=0;bottom=0;right=0;align=left;spacingLeft=6;fontStyle=5;overflow=hidden;" parent="P0SjYmlm0OOzNPO-IwvO-2" vertex="1">
                    <mxGeometry x="60" width="120" height="30" as="geometry">
                        <mxRectangle width="120" height="30" as="alternateBounds"/>
                    </mxGeometry>
                </mxCell>
                <mxCell id="P0SjYmlm0OOzNPO-IwvO-11" style="shape=tableRow;horizontal=0;startSize=0;swimlaneHead=0;swimlaneBody=0;fillColor=none;collapsible=0;dropTarget=0;points=[[0,0.5],[1,0.5]];portConstraint=eastwest;top=0;left=0;right=0;bottom=1;strokeWidth=1;" parent="P0SjYmlm0OOzNPO-IwvO-1" vertex="1">
                    <mxGeometry y="60" width="180" height="30" as="geometry"/>
                </mxCell>
                <mxCell id="P0SjYmlm0OOzNPO-IwvO-12" value="PK, FK" style="shape=partialRectangle;connectable=0;fillColor=none;top=0;left=0;bottom=0;right=0;fontStyle=1;overflow=hidden;" parent="P0SjYmlm0OOzNPO-IwvO-11" vertex="1">
                    <mxGeometry width="60" height="30" as="geometry">
                        <mxRectangle width="60" height="30" as="alternateBounds"/>
                    </mxGeometry>
                </mxCell>
                <mxCell id="P0SjYmlm0OOzNPO-IwvO-13" value="nome_usuario_rec" style="shape=partialRectangle;connectable=0;fillColor=none;top=0;left=0;bottom=0;right=0;align=left;spacingLeft=6;fontStyle=5;overflow=hidden;" parent="P0SjYmlm0OOzNPO-IwvO-11" vertex="1">
                    <mxGeometry x="60" width="120" height="30" as="geometry">
                        <mxRectangle width="120" height="30" as="alternateBounds"/>
                    </mxGeometry>
                </mxCell>
                <mxCell id="wItH8cT6PPfSwp1aAIXD-2" style="shape=tableRow;horizontal=0;startSize=0;swimlaneHead=0;swimlaneBody=0;fillColor=none;collapsible=0;dropTarget=0;points=[[0,0.5],[1,0.5]];portConstraint=eastwest;top=0;left=0;right=0;bottom=1;strokeWidth=0;fontStyle=0" parent="P0SjYmlm0OOzNPO-IwvO-1" vertex="1">
                    <mxGeometry y="90" width="180" height="30" as="geometry"/>
                </mxCell>
                <mxCell id="wItH8cT6PPfSwp1aAIXD-3" value="" style="shape=partialRectangle;connectable=0;fillColor=none;top=0;left=0;bottom=0;right=0;fontStyle=0;overflow=hidden;" parent="wItH8cT6PPfSwp1aAIXD-2" vertex="1">
                    <mxGeometry width="60" height="30" as="geometry">
                        <mxRectangle width="60" height="30" as="alternateBounds"/>
                    </mxGeometry>
                </mxCell>
                <mxCell id="wItH8cT6PPfSwp1aAIXD-4" value="data_inicio" style="shape=partialRectangle;connectable=0;fillColor=none;top=0;left=0;bottom=0;right=0;align=left;spacingLeft=6;fontStyle=0;overflow=hidden;" parent="wItH8cT6PPfSwp1aAIXD-2" vertex="1">
                    <mxGeometry x="60" width="120" height="30" as="geometry">
                        <mxRectangle width="120" height="30" as="alternateBounds"/>
                    </mxGeometry>
                </mxCell>
                <mxCell id="IwqjQsdvRpzZCe0v6d-A-1" value="premio" style="shape=table;startSize=30;container=1;collapsible=1;childLayout=tableLayout;fixedRows=1;rowLines=0;fontStyle=1;align=center;resizeLast=1;fillColor=none;" parent="1" vertex="1">
                    <mxGeometry x="-230" y="190" width="180" height="120" as="geometry"/>
                </mxCell>
                <mxCell id="IwqjQsdvRpzZCe0v6d-A-2" style="shape=tableRow;horizontal=0;startSize=0;swimlaneHead=0;swimlaneBody=0;fillColor=none;collapsible=0;dropTarget=0;points=[[0,0.5],[1,0.5]];portConstraint=eastwest;top=0;left=0;right=0;bottom=1;strokeWidth=0;" parent="IwqjQsdvRpzZCe0v6d-A-1" vertex="1">
                    <mxGeometry y="30" width="180" height="30" as="geometry"/>
                </mxCell>
                <mxCell id="IwqjQsdvRpzZCe0v6d-A-3" value="PK" style="shape=partialRectangle;connectable=0;fillColor=none;top=0;left=0;bottom=0;right=0;fontStyle=1;overflow=hidden;" parent="IwqjQsdvRpzZCe0v6d-A-2" vertex="1">
                    <mxGeometry width="60" height="30" as="geometry">
                        <mxRectangle width="60" height="30" as="alternateBounds"/>
                    </mxGeometry>
                </mxCell>
                <mxCell id="IwqjQsdvRpzZCe0v6d-A-4" value="id_prem" style="shape=partialRectangle;connectable=0;fillColor=none;top=0;left=0;bottom=0;right=0;align=left;spacingLeft=6;fontStyle=5;overflow=hidden;" parent="IwqjQsdvRpzZCe0v6d-A-2" vertex="1">
                    <mxGeometry x="60" width="120" height="30" as="geometry">
                        <mxRectangle width="120" height="30" as="alternateBounds"/>
                    </mxGeometry>
                </mxCell>
                <mxCell id="IwqjQsdvRpzZCe0v6d-A-14" value="" style="shape=tableRow;horizontal=0;startSize=0;swimlaneHead=0;swimlaneBody=0;fillColor=none;collapsible=0;dropTarget=0;points=[[0,0.5],[1,0.5]];portConstraint=eastwest;top=0;left=0;right=0;bottom=0;" parent="IwqjQsdvRpzZCe0v6d-A-1" vertex="1">
                    <mxGeometry y="60" width="180" height="30" as="geometry"/>
                </mxCell>
                <mxCell id="IwqjQsdvRpzZCe0v6d-A-15" value="" style="shape=partialRectangle;connectable=0;fillColor=none;top=0;left=0;bottom=0;right=0;editable=1;overflow=hidden;" parent="IwqjQsdvRpzZCe0v6d-A-14" vertex="1">
                    <mxGeometry width="60" height="30" as="geometry">
                        <mxRectangle width="60" height="30" as="alternateBounds"/>
                    </mxGeometry>
                </mxCell>
                <mxCell id="IwqjQsdvRpzZCe0v6d-A-16" value="nome_prem" style="shape=partialRectangle;connectable=0;fillColor=none;top=0;left=0;bottom=0;right=0;align=left;spacingLeft=6;overflow=hidden;" parent="IwqjQsdvRpzZCe0v6d-A-14" vertex="1">
                    <mxGeometry x="60" width="120" height="30" as="geometry">
                        <mxRectangle width="120" height="30" as="alternateBounds"/>
                    </mxGeometry>
                </mxCell>
                <mxCell id="IwqjQsdvRpzZCe0v6d-A-20" value="" style="shape=tableRow;horizontal=0;startSize=0;swimlaneHead=0;swimlaneBody=0;fillColor=none;collapsible=0;dropTarget=0;points=[[0,0.5],[1,0.5]];portConstraint=eastwest;top=0;left=0;right=0;bottom=0;" parent="IwqjQsdvRpzZCe0v6d-A-1" vertex="1">
                    <mxGeometry y="90" width="180" height="30" as="geometry"/>
                </mxCell>
                <mxCell id="IwqjQsdvRpzZCe0v6d-A-21" value="" style="shape=partialRectangle;connectable=0;fillColor=none;top=0;left=0;bottom=0;right=0;editable=1;overflow=hidden;" parent="IwqjQsdvRpzZCe0v6d-A-20" vertex="1">
                    <mxGeometry width="60" height="30" as="geometry">
                        <mxRectangle width="60" height="30" as="alternateBounds"/>
                    </mxGeometry>
                </mxCell>
                <mxCell id="IwqjQsdvRpzZCe0v6d-A-22" value="data_prem" style="shape=partialRectangle;connectable=0;fillColor=none;top=0;left=0;bottom=0;right=0;align=left;spacingLeft=6;overflow=hidden;" parent="IwqjQsdvRpzZCe0v6d-A-20" vertex="1">
                    <mxGeometry x="60" width="120" height="30" as="geometry">
                        <mxRectangle width="120" height="30" as="alternateBounds"/>
                    </mxGeometry>
                </mxCell>
                <mxCell id="IwqjQsdvRpzZCe0v6d-A-24" style="edgeStyle=orthogonalEdgeStyle;rounded=0;orthogonalLoop=1;jettySize=auto;html=1;entryX=0;entryY=0.5;entryDx=0;entryDy=0;endArrow=classic;endFill=1;startArrow=none;startFill=0;fillColor=none;" parent="1" source="7sStP9-GTbV_s4abkRtO-1" target="IwqjQsdvRpzZCe0v6d-A-2" edge="1">
                    <mxGeometry relative="1" as="geometry"/>
                </mxCell>
            </root>
        </mxGraphModel>
    </diagram>
</mxfile>